<?xml version="1.0"?>
<svg xmlns:rdf="http://www.w3.org/1999/02/22-rdf-syntax-ns#" xmlns="http://www.w3.org/2000/svg" xmlns:cc="http://creativecommons.org/ns#" xmlns:dc="http://purl.org/dc/elements/1.1/" xmlns:svg="http://www.w3.org/2000/svg" id="svg2" viewBox="0 0 101.8 146.66" version="1.1">
  <g id="layer1" transform="translate(20.571 -489.72)">
    <path id="path2996" d="m-9.7488 636.06c-1.4857-0.25496-4.4902-2.4261-6.75-4.8777l-4.0726-4.4182v-8.9676c0-25.614 3.521-100.4 4.8378-102.75 1.012-1.8083 5.914-3.7206 43.439-16.946 13.077-4.6089 24.931-8.3798 26.341-8.3798 1.4501 0 4.2228 1.4199 6.3823 3.2684 3.849 3.2946 10.606 5.7316 15.892 5.7316 5.403 0 5.5067 0.68007 4.2391 27.776-0.63618 13.598-1.6662 35.749-2.2889 49.224-0.7558 16.355-1.5756 25.384-2.4659 27.159-0.87325 1.7411-2.9809 3.2669-6.105 4.4195-18.415 6.7942-63.288 25.043-65.613 26.683-2.8647 2.021-8.8944 2.927-13.836 2.0789zm11.524-5.838 5.1539-1.4974v-22.7l-6.6953 0.47765c-4.8436 0.34554-7.8512 0.0151-10.875-1.1947-2.2987-0.91977-4.4104-1.4414-4.6925-1.1593-0.80275 0.80275-1.5692 19.114-0.90951 21.729 0.76406 3.0289 5.2693 5.7814 9.5183 5.8152 1.8404 0.0146 5.6654-0.64722 8.5-1.4708zm39.454-16.07c16.335-6.3613 30.095-11.955 30.579-12.43 0.82864-0.81352 2.062-20.27 4.6499-73.349 0.61257-12.565 0.92778-23.031 0.70045-23.258-0.22733-0.22733-14.097 3.7852-30.822 8.9168l-30.408 9.3302-0.65727 6.5738c-0.6174 6.175-1.4865 21.294-3.8962 67.782-0.55593 10.725-1.2724 21.412-1.5922 23.75-0.39661 2.8991-0.21139 4.25 0.58271 4.25 0.64027 0 14.529-5.2047 30.864-11.566zm-36.192-13.02c2.3225-0.62341 2.5945-2.6319 4.027-29.742l0.67824-12.835-4.9069 0.80973c-6.934 1.1442-10.987 0.77654-15.376-1.3949l-3.8119-1.886-0.72047 19.683c-0.39625 10.826-0.4356 20.58-0.0875 21.677 0.34816 1.0969 1.6356 2.4783 2.861 3.0697 2.3804 1.1488 13.837 1.5568 17.337 0.61737zm-0.22461-46.575c2.2638-0.64272 4.4001-1.4302 4.7474-1.75 0.34725-0.31978 0.94451-7.0554 1.3272-14.968 0.63699-13.169 0.5552-14.333-0.96644-13.749-0.91428 0.35084-4.1246 0.92728-7.134 1.281-4.5127 0.53037-6.3375 0.23754-10.412-1.6708-2.7172-1.2727-5.1225-2.1251-5.3452-1.8944-0.22269 0.23077-0.55624 6.7693-0.74121 14.53-0.35675 14.968 0.0487 16.591 4.6056 18.438 2.9914 1.2125 9.2258 1.1153 13.919-0.21706zm26.28-44.49c20.533-7.8872 30.336-12.123 30.336-13.107 0-0.97412-0.57781-1.2326-1.75-0.78295-37.587 14.419-61.955 24.013-62.7 24.685-3.0988 2.7969 7.2789-0.48708 34.114-10.795zm11.586 1.4473c15.262-5.0953 27.75-9.6085 27.75-10.029 0-2.3211-9.6437 0.20787-31.747 8.3253-13.614 4.9998-25.428 9.4861-26.253 9.9696-4.7941 2.8097 5.5034-0.004 30.25-8.2655zm-23.75-2.7963c12.1-4.4784 25.712-9.5198 30.25-11.203 4.5375-1.6834 8.25-3.4813 8.25-3.9953 0-0.51405-1.0125-0.61777-2.25-0.2305-39.589 12.389-66.641 21.445-67.314 22.534-0.33472 0.5416-0.0808 1.6207 0.56438 2.3981 1.0051 1.211 1.6973 1.2148 4.8361 0.0266 2.0147-0.76271 13.563-5.0509 25.663-9.5292z"/>
  </g>
  <metadata>
    <rdf:RDF>
      <cc:Work>
        <dc:format>image/svg+xml</dc:format>
        <dc:type rdf:resource="http://purl.org/dc/dcmitype/StillImage"/>
        <cc:license rdf:resource="http://creativecommons.org/licenses/publicdomain/"/>
        <dc:publisher>
          <cc:Agent rdf:about="http://openclipart.org/">
            <dc:title>Openclipart</dc:title>
          </cc:Agent>
        </dc:publisher>
        <dc:title>ECI-book</dc:title>
        <dc:date>2010-12-16T13:57:53</dc:date>
        <dc:description>Line art of a closed hardcover book with its spine facing forward.</dc:description>
        <dc:source>http://openclipart.org/detail/101017/eci-book.svg-by-dpkpm007</dc:source>
        <dc:creator>
          <cc:Agent>
            <dc:title>dpkpm007</dc:title>
          </cc:Agent>
        </dc:creator>
        <dc:subject>
          <rdf:Bag>
            <rdf:li>book</rdf:li>
            <rdf:li>clip art</rdf:li>
            <rdf:li>clipart</rdf:li>
            <rdf:li>items</rdf:li>
            <rdf:li>line art</rdf:li>
          </rdf:Bag>
        </dc:subject>
      </cc:Work>
      <cc:License rdf:about="http://creativecommons.org/licenses/publicdomain/">
        <cc:permits rdf:resource="http://creativecommons.org/ns#Reproduction"/>
        <cc:permits rdf:resource="http://creativecommons.org/ns#Distribution"/>
        <cc:permits rdf:resource="http://creativecommons.org/ns#DerivativeWorks"/>
      </cc:License>
    </rdf:RDF>
  </metadata>
</svg>
