<?xml version="1.0" encoding="UTF-8" standalone="no"?>
<svg
   xmlns:dc="http://purl.org/dc/elements/1.1/"
   xmlns:cc="http://creativecommons.org/ns#"
   xmlns:rdf="http://www.w3.org/1999/02/22-rdf-syntax-ns#"
   xmlns:svg="http://www.w3.org/2000/svg"
   xmlns="http://www.w3.org/2000/svg"
   xmlns:sodipodi="http://sodipodi.sourceforge.net/DTD/sodipodi-0.dtd"
   xmlns:inkscape="http://www.inkscape.org/namespaces/inkscape"
   viewBox="0 0 1257.000000 468.000000"
   version="1.0"
   id="svg2"
   inkscape:version="0.48.2 r9819"
   width="100%"
   height="100%"
   sodipodi:docname="divider-2-by-kickthecork.com-181268.svg">
  <defs
     id="defs308" />
  <sodipodi:namedview
     pagecolor="#ffffff"
     bordercolor="#666666"
     borderopacity="1"
     objecttolerance="10"
     gridtolerance="10"
     guidetolerance="10"
     inkscape:pageopacity="0"
     inkscape:pageshadow="2"
     inkscape:window-width="1242"
     inkscape:window-height="920"
     id="namedview306"
     showgrid="false"
     inkscape:zoom="0.67504227"
     inkscape:cx="389.08555"
     inkscape:cy="184.89018"
     inkscape:window-x="0"
     inkscape:window-y="0"
     inkscape:window-maximized="0"
     inkscape:current-layer="svg2" />
  <g
     transform="translate(0 468) scale(.1 -.1)"
     id="g4"
     style="fill:#ffffff;fill-opacity:1">
    <path
       d="m6244 4305c-4-8-3-27 0-41 5-19 2-30-11-39-16-12-16-16-3-40 20-38 40-43 62-16 22 28 24 67 2 75-8 3-12 11-9 16 11 18-4 60-21 60-8 0-17-7-20-15zm26-105c0-5-2-10-4-10-3 0-8 5-11 10-3 6-1 10 4 10 6 0 11-4 11-10z"
       id="path6"
       style="fill:#ffffff;fill-opacity:1" />
    <path
       d="m6396 4143c-3-3-24-5-46-5-28 1-47-5-61-19-19-19-19-19-19 1 0 11-5 20-11 20s-8-7-4-17c5-15 4-16-6-5-15 14-49 16-49 3 0-5 7-14 15-21s15-20 15-29c-1-13-2-13-12 3-24 42-43 56-75 56-18 0-33-4-33-10 0-5 4-10 10-10 19 0 91-74 111-113 24-46 19-57-13-27-49 47-130 55-173 17-37-31-45-94-15-124 11-13 26-23 32-23s2 10-10 23c-28 30-28 69 1 101 21 25 44 31 99 28 37-3 85-54 101-109l14-47 12 47c6 26 20 56 31 67s16 20 12 20-13-5-20-12c-9-9-12-7-12 10 0 25 77 123 108 137 26 12 35 32 17 38-7 3-16 3-19 0zm-67-52c-29-40-38-32-9 9 12 17 24 29 27 26 3-2-5-18-18-35z"
       id="path8"
       style="fill:#ffffff;fill-opacity:1" />
    <path
       d="m6401 4013c-19-3-44-11-55-19-20-14-19-15 9-7 85 23 145-3 145-63 0-43-42-94-78-94-15 0-47-12-71-26l-45-25-23 28c-14 16-26 23-29 17s-10-19-17-28c-12-17-15-16-54 4-49 25-113 38-113 22 0-6 13-26 29-44 37-43 91-128 91-145 0-20-102-6-114 15-5 9-36 44-70 77-47 47-77 66-134 88-40 16-80 27-89 25-33-6-13-22 44-36 32-8 81-29 109-47 51-33 134-112 134-127 0-5-31-6-70-3-70 6-89-2-49-20 28-13 78-104 94-170l13-50 1 42c1 30-9 60-34 107-19 37-35 68-35 71s20 5 44 5c35 0 48-5 61-22 14-21 47-119 59-178 2-14 2 2-1 35s-16 80-29 107c-13 26-24 50-24 53s22 5 49 5c44 0 50-3 61-29 6-16 18-62 25-102 9-49 13-62 14-39 0 19-6 60-14 90s-15 60-15 67c0 8 30 12 100 12 55 0 100-2 100-5s-9-33-20-67c-21-66-28-98-29-134-1-20-6-23-40-23-52 0-55 13-32 120 11 47 17 87 15 89-7 8-22-46-35-125-14-89-16-94-29-74-7 10-10 11-10 3 0-10-28-13-108-13-71 0-112-4-120-12-17-17-15-53 3-68 26-21 17-49-27-80-62-45-126-40-180 15-55 55-43 146 23 180 26 14 36 15 60 4 36-14 56-46 40-62-8-8-11-8-11 1 0 19-45 14-64-7-15-16-15-22-4-40 7-12 21-24 31-27 24-8 67 21 68 46 1 11 2 26 3 33 6 40-47 87-97 87-26-1-69-36-89-74l-14-27-39 39c-87 84-170 202-187 266-9 34-17 46-31 46-15 0-17-6-12-32 6-36-42-200-90-303-7-17-23-51-34-78-12-27-27-47-36-47-8 0-35-21-59-46-41-42-56-77-56-126 0-22-10-36-95-132-48-53-64-66-81-62-18 5-21 2-17-13 3-14-11-30-54-63-73-57-145-98-168-98-18 0-98 54-128 88-17 19-17 21 3 61 38 72 27 149-30 209-12 13-20 25-18 27 7 8 185-83 258-132 41-28 86-56 100-62 22-11 22-9-5 14-118 101-330 208-457 230-50 9-60 24-56 85l3 52 50 19c27 10 86 22 130 25l80 6-29-20c-16-11-44-23-62-27-19-3-35-9-35-13-1-4-3-19-4-34-2-15-9-36-14-47-17-31-13-39 7-13 9 12 28 24 41 27 31 6 44 18 47 47 1 13 3 26 3 29 2 14 84 50 107 47 20-2 29-11 38-38 17-52 86-95 166-103 77-7 156 14 165 43 4 11 15 20 25 20 11 0 31 18 48 43 38 56 44 73 48 132 11 136 2 201-26 208-14 4-20 14-20 33 0 39-92 124-133 124-17 0-42 11-60 26-30 26-32 26-172 22-121-3-145-6-169-23-16-11-37-25-48-31-36-21-88-78-88-96 0-10-6-18-14-18-19 0-66-74-66-104 0-14-4-27-9-30-14-9-22-71-13-97 5-13 6-33 2-43-5-16-14-8-50 47-50 75-92 108-170 131-69 20-180 22-180 2 0-8 16-16 39-20 32-5 51-19 109-81 83-90 126-115 200-115 33 0 51-4 47-10-3-6-51-10-109-10-95 0-109 3-169 31-61 28-72 30-154 26-67-3-109-11-177-36-49-18-97-40-107-50-9-9-23-37-29-63-11-43-41-88-58-88-4 0-19 6-33 14-41 21-160 58-194 59-16 1-43-2-58-6-26-7-28-6-22 13 4 13 0 31-9 46-13 19-22 23-41 18-15-4-25-2-25 5 0 17-60 13-66-4-4-8-18-15-34-15-38 0-53-20-40-54 9-26 9-26-34-26-30 0-55-8-81-26-25-16-46-23-60-20-22 6-159-36-183-56-21-18-26-2-30 105-2 56-7 106-12 111-20 20-362-139-442-206-24-20-27-31-28-83-3-125 0-155 13-155 10 0 14 26 16 107 2 104 3 109 29 130 15 12 37 24 48 27 12 3 59 23 105 45 98 45 230 101 241 101 5 0 8-45 8-100 0-95-1-101-22-109-74-29-230-109-282-144-33-23-74-50-91-59-16-10-23-17-15-18 9 0 20 4 25 9 23 23 353 190 375 191 12 0 15-19 15-110-1-118 4-141 27-123 17 15 226 99 266 108 27 6 33 3 43-18 15-33 55-61 113-81 34-12 85-16 186-16 105 0 140-3 140-12 0-7 3-23 6-35 5-17 2-23-10-23-46 0-142-65-177-120-17-27-33-80-24-80 3 0 19 15 36 34 33 38 110 69 158 65 16-2 35 1 42 7 8 6 23 15 34 20 15 6 5 9-41 12-48 2-73-2-118-22-31-14-56-23-56-21s10 14 23 26c37 35 98 59 157 59l55 1-35 30-35 30 35-6c19-4 60-18 90-33 62-31 93-73 88-123l-3-32-31 26c-41 35-121 38-149 7-10-12-25-18-32-16-8 3-13-2-13-14 0-31 20-34 49-6 17 17 42 28 71 31 49 6 58 3 83-34 14-21 14-28 2-50-25-48-81-79-180-97l-40-7 39-9c39-8 76-33 76-49 0-5-21 1-47 12-44 19-62 21-203 16-306-10-498-32-476-55 9-9 121-4 164 7 139 36 461 46 524 18 21-10 41-16 45-15 10 4 4 40-9 55-7 9-3 15 17 23 37 14 53 13 64-7 6-10 11-13 11-8 0 6-5 16-12 23-6 6-8 15-4 19 4 5 17-3 28-17 17-20 19-34 14-75-9-68-9-64-1-117 6-36 4-53-9-72-15-23-17-24-43-11-16 8-35 15-44 15-21 0-31 11-20 24 10 13 21 56 14 56-3 0-30-7-61-16-64-19-215-14-388 12-205 31-261 37-279 30-34-13-1-24 86-30 47-3 139-13 205-21 156-19 343-20 389-1 19 8 35 11 35 6 0-13-51-50-61-44-5 3-17 0-26-5-16-9-14-10 9-11 72 0 173-61 192-114 9-26-28-64-70-72-35-6-99 18-108 42s-26 15-26-14c0-25 6-31 39-42 53-17 119-6 152 26 25 24 27 24 31 6 9-32-19-94-53-121s-143-64-154-53c-3 3 4 14 17 24l23 18h-37c-37 0-120 33-168 67l-25 17 20-23c24-28 106-71 135-71 16 0 21-5 18-22-3-21 1-23 36-20 77 6 139 35 173 81 29 37 33 50 33 103 0 50-5 67-26 95l-25 33 25 33c15 19 26 46 26 60 0 34 5 34 33 1 25-29 105-54 155-48 18 2 32-1 32-6 0-6-6-10-12-10-7-1-42-23-77-51-78-63-123-148-129-247-4-55-9-68-37-99l-32-35-33 17c-57 29-122 45-238 56-182 17-305-13-347-83-20-35-37-35-141 2-157 55-184 70-184 98 0 30-43 107-68 121-16 10-15 12 6 29 66 52 82 141 37 202-14 19-25 37-25 40 0 4 13 20 30 36 22 22 30 38 30 66 0 48 28 68 102 73 29 2 69 7 88 9 19 3 91 10 160 16 169 14 364 39 426 55 55 14 102 36 147 67 44 32 26 31-34-1-93-50-101-52-713-116-139-15-186-30-186-60 0-21-14-19-34 4-17 19-17 21 8 54 20 26 26 45 26 84 0 42-5 56-34 89l-34 39 33 45c35 49 51 95 35 105-5 3-10-2-10-13 0-22-57-112-77-119-7-3-37 4-66 16-54 21-206 44-231 35-11-4-16 4-18 33-3 33-7 38-29 41-15 2-35 12-45 23-22 25-50 24-64-1-6-12-21-20-35-20-31 0-48-30-36-63 9-23 8-24-36-25-47 0-134-24-267-73-43-16-81-27-83-25-3 3-8 52-10 110-3 58-9 106-13 106-40 0-348-140-358-162-2-5-8-8-14-8-5 0-34-16-64-36l-54-36v-178l-25 6c-37 9-70-2-84-29-13-25-50-52-58-43-3 3 0 12 6 20 19 23-3 90-34 104-22 10-26 9-41-23-21-45-50-54-204-61-107-6-131-4-162 10-61 29-70 111-16 130 46 16 77-27 44-60-8-8-22-11-30-8-28 11-17-5 17-26 39-24 90-25 136-2 40 20 52 42 22 42-11 0-32 15-47 35-33 43-49 53-102 60-61 7-92-21-92-86 0-41 5-54 26-74 31-28 101-45 192-45 122 0 170 10 205 43 36 34 60 27 65-18 3-21-3-34-19-46-14-10-28-14-34-9-5 4-50 4-100-2-111-13-324-5-352 12-30 19-56 6-51-25 3-14 1-25-4-25s-8 19-6 42c3 41 2 42-34 50-28 5-54 1-108-17-40-14-76-22-81-19-8 5-25-44-18-50 14-10 163-46 191-46 18 0 57 14 87 30l54 30h188c121 0 190-4 194-11 4-6 19-7 35-4 23 5 32 2 45-19 13-19 14-29 5-45-13-26-25-26-43-1-25 35-65 44-207 41-149-2-191-11-213-45-30-46-25-90 14-127 48-45 98-41 148 11 26 27 47 40 65 40 32 0 33 10 3 37-50 46-108 56-152 27-31-20-32-41-3-40 13 1 24-6 26-15 4-19-23-49-44-49-26 0-54 39-54 73 0 28 6 37 32 51 28 15 56 17 189 14 137-3 160-5 178-22 12-11 21-29 21-42 0-34 15-37 49-8 33 28 43 78 19 102-6 6-8 15-4 19s25-12 47-35c28-29 49-42 68-42 31 0 51 16 51 42 0 24 15 23 53-6 18-13 55-35 82-49 222-112 275-136 313-148 40-11 43-15 41-43-1-17-1-53 1-81l3-50 7 60c4 32 5 66 2 74-6 15 2 14 98-13 107-31 271-65 285-60 20 8 29-19 16-44-14-27 8-57 37-50 13 4 23 0 26-8 7-18 70-18 85 0 6 7 25 16 42 20 26 5 30 10 27 33l-3 27 80 3c77 3 141 15 177 34 27 14 43 11 65-13 47-51 55-84 57-225l2-135-29 6c-38 8-229 101-350 171-53 30-98 55-101 55-11 0-6-39 6-46 7-4 8-3 4 4s-1 12 8 12c8 0 16-4 18-9 4-10 144-90 213-121 28-12 78-35 113-51 34-16 76-32 92-36 17-3 30-12 30-20s4-11 10-8c5 3 45-5 87-18 109-34 252-67 291-67 31 0 45-21 22-35-30-19 11-74 45-61 7 2 16-2 19-10 6-16 71-20 81-4 3 6 16 10 29 10 26 0 52 40 42 66-5 13-2 15 13 11 37-9 194 13 238 34 51 25 59 21 92-45 12-25 26-48 31-51s7-12 3-20c-3-9 1-15 11-15 9 0 16 7 16 15 0 27-30 89-57 117l-26 27 36 41c33 36 37 46 37 94 0 44-5 60-26 85l-25 30 22 31c27 36 35 37 43 6 3-13 22-38 41-55 29-25 45-31 81-31 75 0 115 42 117 126 1 31-5 42-38 71-27 23-48 33-72 33-36 0-38-2-22-31 25-47-45-68-80-24-54 70 25 219 160 297 42 25 157 55 334 88 110 21 328 18 393-4 30-10 56-25 59-32 6-15 33-27 33-14 0 17-61 69-75 64-7-3-30 3-51 12-22 10-50 21-64 26-18 5-12 6 18 3 39-3 43-1 39 15-5 21 31 35 64 25 29-9 23-22-15-36-31-11-33-14-18-25 23-18 35-17 28 1-12 31 78 31 178 0 112-35 284-155 223-155-27 0-153-57-221-100-63-40-71-42-100-32-59 22-52 12 19-26 68-37 235-158 235-171-1-11-243-165-329-208-91-46-88-59 4-18 61 26 199 113 282 177l53 40 27-18c16-10 42-33 58-52 17-20 45-51 63-69 21-23 32-45 32-63 0-16 4-40 10-54 14-37 77-103 106-110 19-5 32-23 54-70 17-36 30-67 30-70s11-29 24-58c36-80 66-172 66-202 0-34 18-33 31 1 25 69 61 121 147 213 75 82 90 103 82 118-5 9-19 39-31 67-24 55-50 98-55 92-2-2 12-39 32-82 40-87 39-112-5-138-38-23-110-107-147-174-16-29-31-53-34-53s-18 39-34 86c-15 47-47 124-70 170l-42 84h56c71 0 105 17 165 81 26 28 52 48 59 46 18-7 13 160-6 204-32 73-129 150-190 149-13-1 1-9 32-20 96-33 160-124 160-229 0-54-15-50-48 10-39 70-171 236-172 214 0-5 15-26 33-45 36-39 107-134 107-144 0-3 14-25 30-48 17-22 30-50 30-61 0-30-88-110-136-125-23-6-62-12-87-12-44 0-48 3-88 55-48 61-65 67-25 9 14-21 23-40 21-43-9-8-56 43-77 82-19 38-16 69 3 34 6-9 15-17 21-17s4 8-5 18-19 32-23 48c-8 40 40 89 96 98 23 3 39 10 36 15-15 24-136-35-136-66 0-27-26-11-101 62-64 63-74 77-61 84 9 5 14 13 10 17s-14 1-22-5c-11-10-19-9-35 1-12 7-21 15-21 18 0 9-119 94-159 115-42 21-37 27 79 87 136 71 197 93 225 80 13-6 69-55 125-109l102-97-74-13c-87-14-169-39-194-58-26-20-4-19 36 2 19 9 50 20 69 24 20 4 59 12 88 18 49 10 72 9 114-4 11-4 19-2 19 4s-6 11-12 11c-7 0-71 56-141 125s-134 125-142 125-15 3-15 8c0 9-92 65-180 109l-65 33h40c23 0 95-7 160-15 157-19 248-19 286 1 28 14 32 14 50-2 13-12 28-15 54-11 34 6 35 5 35-26v-33l-135-17c-74-9-149-23-167-31-44-19-15-20 47 0 57 17 265 32 265 18 1-37 33-151 56-195 26-51 163-199 184-199 6 0 10 9 10 20s-6 20-14 20c-34 0-158 170-186 254-12 38-6 64 7 30 4-10 12-24 17-30 63-67 125-144 143-178 12-22 22-34 23-25 0 9-11 33-25 53-30 44-31 50-6 43 10-2 24-1 31 3 17 10 3 73-26 116-29 42-29 44-5 44 26 0 45 26 36 47-8 17-8 17-12 1-9-39-95-13-156 45-45 44-48 61-9 46 61-25 93-28 111-11 10 10 28 25 39 34 12 10 22 27 22 37 0 18-34 53-63 64-7 3 0 15 20 31 37 31 58 80 40 94-7 6-22 12-35 14-22 3-22 4 13 53 43 59 42 78-5 85-41 7-67-7-122-65-20-22-38-35-38-29 0 28 138 226 168 238 20 9 14-36-13-83s-29-51-17-51c4 0 18 19 30 43 18 33 23 54 20 97l-3 55-76-78c-82-84-127-162-156-266l-17-63-90 6c-50 4-100 10-111 13-15 4-17 2-9-7 7-7 54-14 113-17l101-6v-75l-38 5c-28 4-43 0-55-12-16-15-19-15-43 4-35 28-85 27-299-4-93-14-177-25-185-25s34 27 92 60c59 32 120 68 135 80 27 19 31 20 78 5 57-17 79-19 71-6-3 4-28 11-56 15-51 7-69 29-32 40 20 7 192 178 192 192 0 4-32-24-71-64-38-40-72-72-75-72-2 0-12-8-22-17-43-41-65-54-81-50-86 28-301 132-301 146 0 4 19 18 43 31 23 13 47 28 52 32 6 4 36 28 67 53s63 45 70 45 28-9 46-20c44-27 144-58 221-69 67-8 145 5 201 34 42 23 112 98 131 141 22 51 25 78 15 131-7 41 6 82 39 123 6 8 19 36 29 63 17 46 36 63 36 32 0-23 41-75 72-91 60-31 149-3 188 61 20 32 25 35 71 35 48 0 50-1 43-22-19-64-60-113-110-134-39-16-80-18-89-4-3 6-15 10-26 10-28 0-25-57 5-93 21-26 25-27 52-16 44 19 84 49 84 62 0 8-3 7-9-2-10-16-100-26-118-14-6 5-13 15-15 22-2 11 9 14 49 12 56-3 83 8 126 47 34 32 34 25 1-41-40-78-208-236-229-215-3 2 4 23 15 46 23 47 25 56 9 47-5-4-20-30-33-58-12-29-30-58-39-66-47-38 14-37 82 2 135 77 225 201 255 352l13 60h78l-3-50c-6-121-90-317-154-363-27-20-22-32 15-32l32-1-31-13c-38-17-90-79-98-117-8-44-26-35-26 14 0 28-3 37-9 28-10-16-6-52 11-94 13-33 7-42-20-28-28 15-110 12-152-5-19-8-24-12-10-8 54 13 153 17 146 5-4-6-15-11-24-11s-36-9-59-19c-80-37-120-154-72-215 41-52 137-19 111 38-13 29-47 42-68 25-20-16-28-5-27 36 2 66 71 125 147 125 43 0 59-11 36-25-18-11-50-83-44-99 7-19 35-21 52-4 7 7 12 31 12 55 0 43 10 54 30 31 42-50 57-69 90-118 57-83 75-96 105-80 17 9 25 22 25 41 0 24-13 37-87 89-96 66-138 99-132 104 2 1 27 7 54 12 44 8 50 12 53 37 3 23 0 27-21 27-13 0-42-13-65-30-48-35-57-28-47 38 5 37 16 55 46 84 48 46 99 53 99 15 0-44 59-74 88-45 17 17 15 59-4 86-12 17-25 22-62 22l-47 1 30 16c17 8 38 22 47 30 15 13 18 12 32-16 16-31 39-33 50-5 4 10-2 14-18 14-29 0-42 28-22 48 12 13 18 13 30 2 9-7 16-18 16-25s21-24 48-36l47-23-37-7c-51-8-78-34-78-75 0-43 37-72 69-54 24 12 40 62 23 68-28 9-9 22 32 22 36 0 49-6 76-32 17-18 36-44 41-57 11-27 9-91-3-91-4 0-24 11-44 25-42 29-61 29-78 2-16-26 16-47 73-47l46-1-35-30c-19-17-67-55-107-85-39-30-74-62-78-73-12-38 21-70 58-55 9 3 41 43 72 87 58 87 90 127 99 127 3 0 6-18 6-39 0-41 20-71 46-71 27 0 28 32 1 81-15 26-27 50-27 54 0 15 101-5 129-24 29-21 66-95 56-112-4-5-16-9-29-9-25 0-56-28-56-52 0-16 26-42 52-51 9-3 28 3 42 14 22 17 26 29 26 70 0 88-54 159-132 176-16 3-28 9-28 13 0 15 71 16 111 2 47-16 66-8 23 9-52 21-121 23-148 5-34-22-49-20-41 4 3 11 2 20-3 20s-12 17-16 38c-8 50-39 98-78 122-29 18-30 20-10 20 26 0 28 12 6 31-24 20-88 118-106 164-28 70-50 148-55 202l-6 53h48c38 0 46-3 41-15-8-23 39-163 74-219 44-69 117-136 188-173 49-25 57-32 40-35-20-3-24-11-28-54-4-41-14-61-45-100-22-26-35-45-29-41 6 3 35 22 63 42 39 25 64 35 93 35 37 0 39 2 36 28-4 32-26 32-69 1-34-24-47-25-27-1 9 9 21 34 29 55 7 20 19 37 27 37 12 0 12 4-2 23-8 12-25 43-37 70-12 26-35 59-52 73-27 23-28 26-13 43 19 21 22 91 3 91-7 0-17-4-23-10-12-12-63-15-94-5-43 13-80 45-100 85-31 61-28 70 28 70 42-1 49-4 67-33 59-94 216-83 255 17 9 25 30 36 30 16 0-19 60-140 69-140 6 0 4 12-4 28-8 15-26 55-41 90l-27 63 85 82c48 47 95 103 110 132 14 27 30 51 35 52 5 2 19-31 31-74s42-118 67-167 45-91 45-93-23-3-50-3c-28 0-66-6-85-14-36-15-129-95-120-104 2-3 22 11 43 30 22 20 65 45 96 57 101 38 154 13 211-99 10-19 20-30 22-23 3 7-10 33-27 58s-27 45-23 45c33-2 90-95 71-117-6-8-6-18 0-29 10-18-7-61-30-75-7-4-9-12-4-16 7-7 25 11 45 45 6 10 29-8 84-64 43-43 77-81 77-84 0-7-85-49-125-62-162-50-187-50-237 5-54 59-138 168-151 195-10 21-27 31-27 15 1-7 96-137 152-205 29-37 20-42-33-22-43 17-131 94-141 124-3 8-9 12-13 8-5-5-1-16 7-25 8-10 18-25 21-35 12-34 108-87 188-102 15-4 66-45 123-102 53-53 100-94 103-91 2 3-34 43-81 88s-83 85-81 89 31 10 64 13c67 7 159 39 212 74 33 22 69 23 69 3 0-9 101-87 150-115 19-11 35-27 35-35 0-9-50-40-123-77-169-84-175-86-207-62-14 11-25 16-25 11 0-6 8-13 17-16 49-19-73-52-234-62l-102-7-6 39c-21 124-70 210-188 328-36 35-51 45-57 36-11-18-3-34 23-45 43-20 187-239 187-287 0-17-5-13-26 18-15 21-51 65-81 96-29 32-65 81-78 110-19 42-24 48-24 27-1-14 10-40 24-59 32-43 31-48-2-52-25-3-28-7-25-33 2-16 8-34 13-40 6-6 7 2 3 23-5 24-3 32 7 32 41 0 134-96 174-178 31-63 28-75-8-33-14 17-42 42-62 56-36 24-47 25-107 8-19-5-24-38-8-48 6-4 9-1 8 7-5 21 47 21 90-1 37-19 92-73 92-90 0-9-138 35-160 52-9 6-4 1 10-13l26-25-41-37-40-37 51 25c45 22 55 24 100 14 76-16 85-25 51-55s-109-34-160-9l-32 15 32-30c45-42 74-47 126-22 57 27 60 27 42-9-29-57-160-124-192-98-10 8-13 7-13-5 0-16 20-27 51-27 10 0 19-6 19-12 0-8 3-9 8-3 4 6 19 16 34 24s45 31 67 53c69 66 46-12-30-103-40-48-106-84-134-73-10 4-15 0-15-10 0-11 9-16 30-16 28 0 30-2 20-22-9-19-9-21 2-8 7 8 36 34 63 57 28 23 57 53 65 67 26 50 30 26 4-26-52-104-142-218-171-218-7 0-13-7-13-15 0-27 28-16 83 35 54 50 83 93 133 199 23 49 28 70 33 119 1 16 42 15 177-2 157-21 278-61 437-145 57-30 86-50 82-59-3-9 1-12 13-8 11 4 41-15 90-55l72-60-20-27c-13-17-23-51-27-85-5-51-3-61 23-99 16-24 38-51 49-61 51-45-165 65-285 146-40 26-77 46-82 45-10-4 103-88 117-88 3 0 21-11 38-24 66-49 193-103 297-126 30-7 61-19 68-28 11-14 12-14 12 1 0 14 10 17 50 17h51l-36-31c-19-17-35-36-35-43 0-6 17 6 37 28 45 48 110 77 188 83 59 4 60 4 39-14-12-10-46-39-75-64-61-52-127-89-161-89-19 0-17 4 17 27 22 14 56 40 76 57 19 17 44 36 55 43 10 6 14 12 9 12-11 1-103-65-143-102-16-15-25-18-33-10-6 6-18 9-25 6-10-4-13 3-10 26 2 17-1 31-5 31-5 0-9-20-9-45 0-38-4-46-27-59-58-29-243-51-228-27 3 6-7 6-27 0-53-15-67-11-82 24-33 72-81 104-171 111-63 5-128-13-157-44-11-11-25-20-32-20-35 0-86-96-85-160 0-19-2-51-4-70s-2-23 0-9c2 16 12 29 24 32 21 6 28 57 8 57s-3 80 22 106c15 16 32 23 48 22 18-2 26 2 29 17 6 30 22 45 46 44 21 0 21 0-1-11-13-6-23-18-23-27 0-11 3-12 8-4 4 6 21 17 37 23 23 9 26 13 15 20-12 8-10 10 7 10 37 0 35-18-4-44-134-86-149-259-31-375 131-129 350-120 489 20 28 27 58 49 67 49 15 1 15 2 1 10-12 7-27 0-60-31-24-22-73-54-108-72-57-28-76-32-146-32-120 0-169 18-236 86-64 64-76 101-64 194 11 95 95 165 196 165 45 0 55-4 85-34 50-50 46-66-16-66-27 0-50-4-50-10 0-5 24-10 54-10 49 0 54-2 49-20-3-11-18-34-33-50-21-23-37-30-64-30-37 0-48-13-20-24 50-19 115 14 135 68 14 39 10 38 89 11 28-10 35-17 35-39 1-36 42-72 88-78 42-5 46 1 17 27-11 10-20 31-20 46 0 23-5 30-27 35-45 9-82 25-94 40-21 25 144 17 239-12 9-2 2-24-23-75-20-39-34-73-32-76 6-5 47 61 47 76 0 6 5 11 10 11 15 0 12-30-9-75-10-22-21-53-25-70-10-38-24-55-45-55-28 0-67-23-77-45-5-12-18-20-32-19-25 1-30-14-6-23 21-8 64 13 64 32 0 8 5 15 10 15 17 0 11-20-14-45-22-22-32-24-80-21-31 3-56 2-56-2s-9-13-21-20c-17-11-25-10-50 2-33 16-36 11-13-22 14-20 14-22 0-22-9 0-16 4-16 9 0 16-34 23-45 8-5-8-19-17-30-20-24-7-93 7-108 22-19 19 2 24 28 7 15-10 40-16 58-14 26 2 33 8 35 28 3 20 1 23-9 13-16-16-44-16-72-1-12 7-26 13-32 13-5 1-18 5-28 9-11 5-23 4-30-3-22-22-54-11-91 29-39 44-44 61-21 80 24 20 18 30-19 30-31 0-36 4-47 38-7 20-14 31-16 25-7-20 16-81 32-87 8-3 15-18 15-34 0-41 109-142 153-142 10 0 27-10 37-23 18-21 24-22 146-20 136 3 181 12 230 50 17 12 35 23 40 23 11 0 58 58 67 83 3 9 12 17 19 17 39 0 112 224 79 244-12 8-1 48 12 43 6-2 15-17 21-35 17-48 84-122 131-143 48-21 215-43 228-30s-1 31-25 31c-32 0-70 28-113 82-65 82-98 102-177 108-109 8-82 25 40 25 103 0 110-2 187-39 71-34 85-38 135-33 64 7 266 72 287 93 8 7 11 19 8 25-11 17 54 139 73 139 9 0 49-13 87-29 102-42 145-50 188-35 39 14 40 13 37-24-2-32 18-54 43-46 11 3 23 1 27-6 5-7 20-14 35-16 20-2 29 2 32 17 4 16 11 19 29 15 32-8 61 33 44 63-10 19-8 21 19 21 16 0 42 5 58 11 15 6 52 15 81 20 46 9 159 43 215 64 15 6 17 1 17-38 0-79 15-88 20-13 5 65 7 70 32 77 34 9 248 116 269 135 8 8 19 14 23 14s33 17 64 38 66 42 77 47c18 7 18 9 3 12-15 4-41-9-133-64-64-39-326-165-331-160-3 3-5 60-5 126 1 67 0 121-2 121s-31-14-64-30c-68-34-227-90-255-90-10 0-18 6-18 13 0 22-44 57-96 76-57 22-204 39-204 23 0-5 35-11 79-14 87-5 182-43 202-80 14-26 2-34-64-43-41-6-52-4-70 13-33 31-100 39-134 17-15-10-35-27-44-38-15-19-19-19-84-7-89 17-179 53-183 75-2 9-10 14-18 11-7-3-22 7-34 21-23 30-27 18-5-14 14-20 13-25-4-55-24-43-35-78-23-78 5 0 12 13 15 28 3 16 14 38 24 51l18 22 49-26c56-30 145-55 194-55 40 0 34-16-11-25-41-9-145-61-173-86-11-10-27-19-36-19-16 0-58 50-72 85-5 12-10 15-13 8-6-17 27-83 49-96 22-14 23-30 4-46s-56-96-56-121c0-11-6-20-12-20-16 1-109 24-168 43-25 8-71 17-102 21-53 6-62 4-135-36-76-40-81-41-177-42-88-1-99 1-102 17-2 14 2 16 19 10 65-23 124 3 222 98 39 38 88 75 108 84 52 21 39 33-29 27l-58-5 37 38c132 136 92 328-85 413-35 16-80 32-101 35-25 4-48 17-71 41-36 39-83 48-106 21-9-11-9-15-1-15 7 0 9-4 6-10s5-10 18-10c49 0 42-53-8-62-34-7-51 15-37 47 14 30 9 32-18 5-11-11-30-20-41-20-12 0-62-16-112-36-87-35-92-36-116-20-47 30-195 103-236 116-22 7-44 16-48 20-22 20 261 175 328 181 37 3 95-10 95-21 0-5-8-11-17-15-19-6-67-74-59-82 3-3 12 2 21 11 80 80 290 83 672 10 124-23 206-75 264-166 28-43 33-61 34-111 0-47-4-61-19-73-27-19-42-18-67 7-16 16-18 23-9 35 21 24-15 28-57 7-49-25-104-103-73-103 5 0 12 11 16 25 8 32 24 32 24 1 0-14 11-38 24-53 20-23 32-28 70-28 29 0 50 5 55 14 5 7 11 9 14 4 11-17-40-54-81-60-50-7-77 8-101 55-13 23-20 30-21 19 0-28 26-72 54-91 14-9 42-16 62-16 31 0 45 7 80 44 29 31 44 56 49 85 27 163-28 291-160 367l-50 29 40 3c77 5 106 13 139 43l34 29 7-27c7-29 32-63 46-63 4 0 0 14-8 32-13 26-14 41-6 82 7 31 7 58 2 68-13 24-11 92 3 106 17 17 28 15 22-5-5-14-4-15 4-4 7 10 20 12 46 7l36-7-7-44-6-44 52 19c31 12 76 20 114 20 77 0 315-25 381-40 57-13 172-17 182-7 15 15-9 20-148 32-343 31-463 33-526 12-23-8-42-11-42-7 0 14 35 38 70 48 23 7 28 10 14 11-51 2-130 37-166 73-44 44-46 55-17 92 34 43 123 31 165-23 9-12 12-10 17 10 4 14 4 35 0 48-6 23-5 24 43 16 78-11 121-33 145-73 17-27 24-32 26-20 6 22-29 91-47 94-8 1-41 12-72 23-32 12-81 21-110 21h-53l28-25c38-36 34-45-14-29-51 18-100 10-134-22-22-20-27-21-32-8-13 33 16 93 60 122 39 27 134 59 144 48 2-2-6-13-18-25l-23-21h40c50-1 105-21 149-54 19-15 35-23 35-18 0 24-103 82-146 82-23 0-25 3-19 30 4 17 4 30 1 30-14 0-115-29-147-43-94-39-127-180-61-258 22-27 24-33 11-43-24-17-39-51-39-87v-32l-22 26c-30 34-69 49-143 56l-60 6 50 32c62 39 106 85 134 138 23 43 26 55 13 55-4 0-13-15-20-34-28-76-175-185-279-206-398-81-582-85-660-12-45 41-48 17-4-30 41-45 42-47 22-58-31-16-175 21-258 66-97 53-143 83-143 93 0 5 34 22 76 40 68 27 169 80 217 114 14 10 25 8 60-9 52-26 141-54 173-54 13 0 24-6 24-13s11-25 25-40c41-43 115-34 135 17 6 18 19 25 50 29 60 8 167 66 206 111s64 113 64 173c0 41-32 127-52 139-18 11-21-6-5-24 9-9 22-39 28-65 16-58 2-141-33-188-41-56-165-129-220-129-11 0-35 16-53 36-30 31-38 35-67 29-18-3-45-20-60-37l-27-31-100 33c-56 18-103 36-106 40s12 21 32 36c20 16 52 42 70 58l33 28 40-26c76-50 215-61 290-22 155 79 97 286-77 273-49-3-72-11-62-21 2-2 35-6 72-8 57-4 73-9 94-31 35-34 38-111 7-154s-102-75-161-71l-48 3 35 19c46 25 59 44 60 84 0 37 19 43 38 11 11-17 10-25-3-51-19-39-13-46 19-24 45 29 48 49 16 84-22 25-37 32-64 32-37 0-44-8-25-27s0-72-31-88c-43-22-116-19-151 6-16 11-29 25-29 31s16 32 35 58 47 74 61 106c14 33 32 73 40 91 8 17 14 36 14 42 0 36 223-17 275-65 15-14 30-22 34-19 3 4-2 11-12 16-32 19-17 29 43 29 35 0 60 4 60 10 0 11-7 15-55 25-19 4-53 31-95 75-78 82-127 110-192 110-36 0-48 4-48 15 0 12 16 15 88 15 77 0 95-4 152-31 98-47 170-50 296-11 140 43 174 49 174 27 0-20 52-115 63-115 12 0 8-28-6-37-7-4-23-21-35-37-36-47-29-121 16-178 12-14 11-21-4-47-10-17-21-31-24-30-3 0-22 23-43 50-43 56-74 72-123 63-40-7-89-60-98-105-7-38 11-89 43-116 31-27 123-34 101-9-20 25-8 61 20 64 36 4 68-33 72-83l4-40 12 28c7 16 12 51 12 78 0 43 5 55 34 86l34 36 33-21c51-31 151-53 270-59 95-5 116-3 181 18 56 18 82 33 114 65 22 24 47 41 55 40 63-12 143-43 231-87 31-16 59-25 62-21 2 4 3 60 2 125l-2 118 25-6c45-11 333-156 428-216 18-11 25-11 35-1 9 9 8 12-6 12-10 0-30 8-44 19-43 29-300 164-375 196l-68 28 3 91c3 90 3 91 28 88 43-4 222-86 408-187 51-27 80-28 51-1-12 11-100 60-219 121-62 32-243 105-260 105-18 0-20-8-22-87-1-108-2-110-10-118-4-4-40 4-80 18-160 54-225 71-271 69-43-1-48 1-42 16 18 43 17 52-6 61-13 4-29 7-35 4-6-2-17 3-24 12-16 20-66 20-74-1-4-9-13-13-23-10-26 8-47-9-48-39-2-27-3-27-82-31-53-2-103-12-149-28l-69-25-17 22c-25 31-58 95-58 111s-34 33-85 41c-22 4-73 18-113 32-103 36-203 30-283-16-46-26-70-32-130-35-89-5-129 2-129 21 0 10 8 12 34 8 56-11 120 25 207 115 64 67 82 80 108 80 30 0 52 22 37 37-12 12-197-17-244-39-53-25-81-53-114-115-13-24-27-43-31-43-5 0-7 21-4 46 2 26-1 50-7 57s-12 25-13 41-14 41-28 56c-14 14-25 31-25 37s-19 34-42 63c-32 41-46 51-64 47-17-3-24 1-26 16-5 37-144 86-181 65-9-5-18-4-22 2-18 30-176-7-202-47-9-14-25-23-40-23-16 0-43-18-80-55-48-49-55-60-51-87 4-23 0-36-14-48-25-21-36-151-13-170 9-7 13-21 9-35-5-21 22-92 49-125 7-9 34-31 61-50 43-31 55-35 120-36 113-3 192 42 212 121 9 38 26 40 87 12 45-20 53-28 52-48-3-33 12-49 48-49 20 0 41-10 59-27 15-15 28-22 28-17 0 6-11 21-25 34s-25 34-25 46c0 25-26 44-59 44-20 0-91 37-91 47s190-8 240-23l50-15v-47c0-78-7-90-53-97-63-11-186-53-242-85-27-15-99-62-159-104s-115-76-124-76c-8 0-50 36-93 80-71 72-79 84-79 119 0 52-52 130-103 154-22 12-39 28-43 43-3 13-9 24-13 24-7 0-25 39-45 100-8 25-29 83-45 130-17 47-31 102-31 123 0 49-23 45-31-5-10-62-71-149-178-255-24-24-47-43-52-43-4 0-10 13-14 29-16 75-133 105-173 43-37-56-3-142 51-128 30 7 42 37 27 66-12 22-49 27-68 8-9-9-12-7-12 9 0 27 20 43 62 49 27 5 41 1 66-21 107-90-22-253-151-190-18 9-40 27-50 41-18 24-18 26-2 44 23 25 15 62-15 77-14 7-24 17-23 22s5 22 8 39c7 41 43 121 72 160l24 32h-55c-31 0-56 4-56 8 0 12 49 64 95 99 50 38 129 74 167 76 35 2 42 21 8 25-64 10-194-65-260-150-37-47-48-54-87-59-31-3-47-1-50 7-8 21 35 91 87 144 28 28 50 53 50 55 0 3 9 14 20 25 15 15 20 33 20 69 0 42-4 53-26 70-15 12-34 20-43 19-9 0-31-3-50-5zm1398-222c19-10 22-18 17-42-6-33 16-51 37-30 20 20 45 12 76-26 21-25 29-44 25-59-4-17 0-23 20-28 14-3 26-11 26-17 0-8-5-7-15 1-24 20-31 3-9-22 10-12-8 0-41 27s-89 62-125 79c-121 57-260 37-363-53-111-98-117-297-11-378 39-30 38-44-2-19-33 22-42 14-15-13 22-22 78-30 65-9-4 7-3 8 5 4 17-11 3-26-24-26-37 0-74 21-77 44-2 14-9 20-21 18-23-4-52 21-72 61s-19 53 6 71c24 16 18 36-11 36-22 0-30 19-30 71s15 79 44 79c34 0 38 10 16 38-28 34-25 45 18 92 41 42 60 48 92 28 24-15 33-7 34 33 1 27 6 34 36 45 56 20 113 17 128-6 13-21 42-17 42 5 0 7 5 15 12 17 18 6 90-7 117-21zm-2952-1c22-26 39-25 54 1 10 19 16 21 62 15 59-8 80-22 74-48-7-26 20-38 51-22s47 10 89-35c36-38 41-62 18-81-21-17-2-39 29-33 19 4 25-1 35-28 6-17 11-49 11-71 0-32-4-40-26-48-25-10-25-11-10-35 20-31 20-48 0-88-23-43-36-54-64-53-17 1-25-5-28-19-4-24-29-45-51-44-10 0-7 4 7 9 23 10 30 34 11 45-6 4-1 19 14 38 32 43 51 117 42 164-11 58-51 128-96 166-70 60-103 72-204 72-80 0-97-3-155-31-74-36-165-121-201-189-13-25-27-45-31-45-14 0-8 41 12 80 11 22 20 47 20 57 0 33 29 63 61 63 29 0 30 2 24 30-5 24-1 35 20 56 22 22 32 25 61 20 31-6 34-5 34 18 0 14 4 28 10 31 8 5 68 19 103 24 4 1 15-8 24-19zm1335-20c25-22 53-58 62-80 15-39 36-46 36-14 0 40 95 134 135 134 13 0 11-5-6-22-29-31-79-119-79-140 0-20-17-24-81-20-40 3-49 7-49 22 0 10-7 25-15 34-8 8-15 19-15 26 0 6-19 31-41 55-40 44-41 45-17 45 15 0 44-16 70-40zm104-18c-8-8-22-12-30-9-19 8-21 38-3 56 10 10 16 8 30-10 16-20 16-24 3-37zm-1299-109c75-30 108-61 141-132 28-61 26-127-6-190-22-43-88-90-137-98-45-7-114 19-138 52-25 34-14 45 44 45 27 0 49 5 49 10 0 11-9 13-63 10-45-2-57 18-30 53 21 29 65 47 93 40 30-8 24 16-6 28-15 5-35 7-45 4-24-8-89-76-89-92 0-15 1-15-36-4-16 5-42 12-57 16-25 5-28 9-22 35 5 24 1 32-25 51-27 20-100 37-100 23 0-3 9-14 20-26s20-32 20-45c0-23 33-49 49-38 5 3 29-7 53-21l43-26-117 6c-123 6-148 11-148 30 0 22 58 132 86 161 47 49 124 98 194 122 77 27 134 23 227-14zm2828 6c27-12 53-26 59-31s25-19 42-31 42-35 56-52c31-37 72-130 65-148-9-23-229-57-242-38-9 15 51 49 77 44 23-4 29 1 52 47 14 28 26 53 26 54s-16 0-35-2c-38-5-89-48-81-69 6-15-26-39-66-48-22-6-33 0-66 33-45 45-72 57-108 48s-29-26 12-26c26 0 43-8 65-29 41-41 37-51-20-51-28 0-53-4-56-10-4-6 13-10 44-10 27 0 52-4 55-8 21-35-57-102-118-102-125 0-197 73-197 198 0 121 74 213 201 249 61 18 174 9 235-18zm-2271-89c17-33 66-99 113-150 92-100 91-97 47-179-13-24-24-49-24-55s-7-19-15-29c-13-18-16-17-50 17-51 51-109 78-182 84-35 2-63 8-63 12s15 39 34 76c49 100 86 199 86 227 0 29 9 57 19 57 3-1 19-27 35-60zm996 44c0-3-11-20-24-37-24-32-40-79-51-149-5-35-8-38-40-38-19 0-37 4-40 10-6 10 17 111 42 178 16 42 16 42 64 42 27 0 49-3 49-6zm1820-38c-135-127-203-176-244-176-30 0 7 88 54 128 35 30 118 58 180 61 21 1 22-1 10-13zm-4069-47c50-22 119-89 119-117 0-12-3-12-17-1-14 10-13 8 2-10l20-23-35 7c-34 7-84 42-161 113-20 18-45 40-55 48-17 14-15 15 29 10 26-3 70-15 98-27zm3752-49c3-11 1-20-4-20s-9 9-9 20 2 20 4 20 6-9 9-20zm-149-35c3-9-1-18-10-22-19-7-39 11-30 26 10 16 33 13 40-4zm-3234-21c0-17-22-14-28 4-2 7 3 12 12 12s16-7 16-16zm3943-44c15-7 27-16 27-20s15-5 33-2c21 3 29 1 22-6-32-31-193-54-282-39-35 5-63 14-63 18 0 5 60 9 133 9 101 1 128 3 113 12-13 7-63 8-155 4-130-7-135-6-106 10 17 9 41 20 55 25 35 12 189 4 223-11zm-4438-20l30-12-25-10c-14-5-43-8-65-7-93 4-210-2-196-10 8-5 29-7 46-4 30 5 55-10 41-24-7-7-136 15-154 26-17 10 85 49 154 59 55 8 124 1 169-18zm2333-2c3-15-17-17-225-20-125-2-234-1-240 1-7 2-13 9-13 17 0 11 31 14 148 16 299 6 326 5 330-14zm1560 10c-3-7-20-14-39-14l-34-2 30 14c38 17 48 17 43 2zm-3561-24c-3-3-12-4-19-1-8 3-5 6 6 6 11 1 17-2 13-5zm3573-14c0-13-20-13-40 0-12 8-9 10 13 10 15 0 27-4 27-10zm-3629-10c5 0 9-4 9-10 0-5-19-10-42-10-78 0-112-17-200-98-46-43-98-84-116-91-52-22-38-32 36-26 66 6 67 6 40-11-38-25-81-98-94-158-17-84 17-174 91-239 32-28 143-77 175-77 21 0 38-9 57-31 52-58 102-56 147 5 10 14 26 26 35 26 22 0 124 36 172 60l37 19 88-46c49-26 122-58 162-72 41-14 74-30 75-36 2-12-112-82-220-135-58-27-97-40-131-41-68-3-80 7-49 40 38 41 59 78 48 85-5 4-15-2-20-12-14-26-60-47-146-67-60-14-88-15-195-5-69 6-145 15-170 20s-85 16-134 25c-163 31-250 88-308 200-34 66-26 142 17 165 22 12 27 11 45-5 15-13 19-26 15-42-12-50 80-15 117 45 40 64 0 155-76 172-55 12-109-20-143-83-14-28-15-28-34-11-24 22-24 30 1 61 11 14 20 40 19 57v31l-14-38c-8-21-21-45-30-54-15-15-20-14-62 7-59 29-137 50-193 50-54 0-45 10 40 40 36 13 86 38 113 57 26 18 53 33 60 33 16 0 49-35 67-68 6-13 14-22 16-19 10 10-8 54-32 80-13 14-24 30-24 34s14 28 30 53c18 27 30 58 30 78v34l43-7c23-4 65-15 94-26 129-46 216-44 296 9 34 23 55 28 131 33 50 3 97 4 104 2 8-2 18-3 23-3zm59-1c0-9-31-21-37-15-3 3-3 9 1 14 6 10 36 12 36 1zm4820-13c0-16 3-17 12-8 17 17 45 15 53-5 4-12-1-24-14-35-26-20-26-24-1-31 11-3 20-13 20-22 0-12-7-15-27-13-23 2-29 8-31 36-2 24-11 36-33 47-37 20-40 54-4 51 18-1 25-7 25-20zm-5161 4c-24-14-99-24-99-13 0 18 13 23 64 23 36-1 46-3 35-10zm-902-21c16-16 5-39-17-39-23 0-32 13-24 34 7 19 25 21 41 5zm6003-4c14-17 5-35-18-35-27 0-45 17-39 34 8 20 41 21 57 1zm-1065-21c27-15 71-48 98-73s59-53 73-61c58-35-4-41-93-9-76 28-118 61-144 110-18 37-19 39-2 30 10-5 32-23 48-41 35-36 130-93 147-88 6 2-11 16-38 30-49 26-152 107-153 121-1 12 12 8 64-19zm-3815-5c-88-71-125-99-131-99-4 0-9-7-13-15-8-22 21-5 80 46 97 84 118 86 128 12 3-26 4-48 2-50-2-3-21-3-42-1l-37 3 27 32c15 18 26 39 24 45-3 8-9 4-17-10-16-29-48-62-61-62-5 0-10-4-10-8 0-9-97-38-155-46l-40-5 70 64c72 67 145 113 180 114 18 0 18-1-5-20zm-1052-11c2-10-5-19-18-23-27-8-43 6-34 29 8 22 48 17 52-6zm1332 7c0-8-6-15-14-15-17 0-28 14-19 24 12 12 33 6 33-9zm439-11c-6-8-21-14-33-14-20 0-20 1 4 19 27 21 48 18 29-5zm2799 8c2-7-6-12-17-12-21 0-27 11-14 24 9 9 26 2 31-12zm-4693-17c0-22-22-30-44-16-21 14-5 43 21 39 15-2 23-10 23-23zm3075-9c0-70 65-244 116-312 13-17 24-34 24-37 0-30-90 47-122 104-12 22-25 39-28 39s-14-16-23-36c-12-24-23-34-35-32-23 5-20 36 13 128 15 41 29 99 32 128 6 58 23 71 23 18zm1836 5c6-12 22-33 34-46 13-14 22-27 19-29-8-8-98 7-93 15 3 5 6 27 6 49 0 44 15 49 34 11zm1199 19c3-6-1-13-10-16-19-8-30 0-20 15 8 14 22 14 30 1zm-3822-23c48-15 125-75 133-104 6-22 1-31-78-156-15-24-57-78-94-121l-67-79-62 6c-86 8-266 72-265 95 0 4 36 45 80 90 44 46 80 87 80 91 0 5 14 27 31 50 17 24 28 45 25 48s-13-8-23-26c-22-38-38-40-28-4 7 28 47 82 72 96 12 7 12 3-2-22-9-17-11-31-5-31 5 0 10 4 10 9s12 23 26 40c23 28 32 31 77 30 29 0 69-6 90-12zm-2233-11c0-20-19-31-32-18-6 6-7 15-4 21 10 16 36 13 36-3zm1780 5c0-5 6-11 13-14 6-2 3-3-8-1s-31 4-45 5l-25 1 25 8c35 11 40 11 40 1zm4153-15c-6-29 28-56 59-48 15 3 19 1 16-9-2-7-19-17-37-20-19-4-46-16-61-27-22-16-34-19-61-12-87 20-199 71-199 90s129 47 226 49c59 1 61 0 57-23zm77 10c0-9 8-12 24-9 30 6 44-24 21-46-15-15-18-14-34 5-12 15-22 19-33 13-9-5-22-3-34 5-15 12-16 16-5 30 16 20 61 21 61 2zm-1660-1c0-11-51-24-67-17-13 5-7 9 22 13 22 3 41 7 43 8 1 0 2-1 2-4zm1981-35c63-17 134-36 158-43l43-12 3-117c2-115-1-128-20-109-22 21-193 99-231 105-35 6-42 12-53 42-14 37-67 84-97 84-10 0-29 3-41 6-26 7-20 34 8 34 10 0 24 9 31 20 18 28 62 26 199-10zm-6378 8c7-20-12-48-33-48-30 0-35 21-10 42 26 21 37 23 43 6zm107-3c13-16 6-35-14-35-8 0-19 7-27 16-10 13-10 17 2 25 19 12 25 11 39-6zm225-15c44-11 83-24 88-29 16-16-135-100-209-114-26-5-34-1-57 28-16 21-37 35-54 37-34 4-38 32-5 36 24 4 47 36 37 52-11 17 116 11 200-10zm-407-17c3-22 34-39 51-29 5 3 14 0 20-8 9-11 2-15-38-20-56-7-108-51-118-99-6-30-21-41-71-51-37-7-77-23-167-67-34-16-63-29-66-29s-5 51-6 114l-1 115 80 25c44 14 94 26 111 26 18 0 64 11 102 25 81 29 99 28 103-2zm128 2c13-27 9-35-17-35-24 0-32 16-19 40 14 26 23 25 36-5zm3291-40c68 0 85-16 38-37-20-9-34-9-61 1-20 7-38 10-41 7-7-7 58-46 79-46 25 0 79-50 95-88 8-19 12-36 10-39-19-18-181 121-229 196-37 60-35 68 9 34 31-24 46-28 100-28zm2366 33c18-12 34-26 35-30 2-4 8-8 13-8s28-9 52-19c23-11 59-25 80-31 46-14 39-30-13-30-21 0-76-14-122-31-110-41-117-41-146 1-31 46-24 91 20 137 17 18 36 33 41 33s23-10 40-22zm-4477-16c6-4 17-25 24-47 22-69 70-158 112-208l41-49-21-20c-21-22-94-35-135-24-13 3-36 18-51 33-27 27-29 43-11 86 6 14 2 17-24 17-30 0-71-29-71-51 0-5-4-7-10-4-13 8-13 71 0 95s92 54 124 46c41-10 38 10-3 23-56 16-91 13-136-12-81-45-95-142-33-213 43-48 86-64 178-64 81 0 125 13 173 50 31 25 27 27 96-40 14-14 37-32 51-41l25-16-42-21c-56-29-123-52-151-52-13 0-31 9-40 20-14 16-24 18-59 11-24-5-43-4-43 0 0 5 16 9 36 9 21 0 33 4 29 10-3 6-20 10-37 10-22 0-39-10-64-37l-34-37-68 22c-172 55-248 187-192 334 22 58 98 138 132 138 11 0 28 4 38 10 17 9 100 26 140 29 8 0 20-3 26-7zm3575-84c-37-84-106-198-120-198-16 0-41 56-41 90 0 58 36 122 88 157 95 64 116 50 73-49zm-3455 56c43-18 100-87 108-130 8-38-10-108-31-126-16-13-11-18-66 64-54 81-84 142-93 186-7 32-6 33 22 26 16-4 43-13 60-20zm3351-10c-77-67-99-186-46-243 19-20 18-21-24-59-93-87-104-94-129-81-13 6-65 43-116 81-72 54-90 73-82 83 6 7 41 33 78 56 37 24 69 46 72 50 7 8 150 92 180 106 92 40 106 42 67 7zm1481 6c44-19 92-74 77-88-3-3-26-1-50 6-25 7-54 12-64 12s-26 9-36 20c-20 22-46 25-77 9-11-6-35-8-55-4-30 5-33 8-21 22 37 45 148 56 226 23zm-6080-31c27-9 52-34 52-52 0-12-72-12-82 0-15 19-52 16-72-6-16-18-92-41-131-41-47 0 39 105 92 113 34 5 97-1 141-14zm2333-11c3-44-5-97-21-128-37-72-159-162-201-148-6 2 21 42 60 88 40 47 88 111 108 143 35 56 52 70 54 45zm3539-24c0-2-7-4-15-4s-15 4-15 10c0 5 7 7 15 4 8-4 15-8 15-10zm-4860-27c-31-24-60-70-60-94 0-42 29-89 69-111 43-24 66-29 38-8-23 18-37 68-25 89 15 28 25 19 31-25 6-41 19-59 73-96 33-22-80-4-126 20-43 24-80 83-80 132 0 34 25 73 59 91 32 17 41 18 21 2zm4825-17c48-50 114-52 159-4 22 24 25 25 86 15 34-6 65-13 68-16 10-10-13-37-46-55-17-10-37-22-44-27-44-34-223-41-361-15-51 10-127 42-127 55 0 17 161 71 226 76 5 1 23-12 39-29zm101 15c4-8 13-15 21-15s11-4 8-10c-16-26-125 0-125 31 0 16 90 11 96-6zm-5886-44c0-13-49-31-85-31-62 0-39 23 40 40 32 6 45 4 45-9zm132 4c75-15 158-49 158-63 0-21-102-52-201-63-195-20-379 25-379 92 0 13 13 19 58 27 50 9 59 8 72-8 32-39 90-51 133-28 28 15 47 34 47 47 0 15 31 14 112-4zm5191-8c33-14 68-47 49-47-6 0-14 5-17 10-3 6-24 10-47 10-32 0-46-6-69-31-28-30-40-79-19-79 6 0 10 11 10 25 0 35 37 65 81 65 29 0 43-7 63-31 34-40 33-56 0-30-32 25-71 27-96 4-21-18-24-53-6-71 17-17-3-15-41 4-54 27-66 75-31 132 30 49 68 61 123 39zm-4742-39c29-32 34-53 23-95-8-30-24-29-24 1 0 55-68 98-123 77-37-14-36 9 1 31 44 28 89 23 123-14zm2193-43c-35-27-41-16-11 23 7 9 13 10 21 2 7-7 4-14-10-25zm-2425-17c25-28 28-40 29-95 0-34 7-84 16-110 22-66 87-142 149-175 49-27 50-28 22-29-85-2-158-32-171-71-9-30-20-20-20 18 0 28-7 43-28 60-25 22-26 26-11 40 54 55 60 155 11 218-27 36-91 76-121 76-9 0-32 7-53 16l-37 16 55 14c30 8 68 23 85 34 39 26 40 25 74-12zm186 10c29-26 37-77 15-103-20-24-29-18-23 18 3 23 0 37-12 47-23 19-71 17-94-4-19-17-19-17-14 3 7 28 50 61 79 61 12 0 35-10 49-22zm-1657-80c20-20 14-38-13-38-18 0-25 5-25 18 0 32 17 41 38 20zm-534-60c3-29 4-73 3-97l-2-43-70-30c-111-48-114-49-230-117-143-83-174-104-169-113 5-8 58 19 87 44 24 20 358 188 375 188 9 0 12-33 12-120 0-66 2-120 4-120s39 16 82 36c44 20 94 42 113 50 18 8 31 17 28 20-9 9-77-15-145-52-34-19-65-34-68-34-10 0 8 224 18 238 6 6 18 12 28 12 9 0 43 10 76 21 32 12 105 31 162 44l102 22 13-26c8-18 22-27 42-29 40-5 57-22 22-22-58 0-141-61-152-111-4-16-11-29-16-29-14 0-11-20 4-20 6-1 21-15 32-31 25-39 131-97 158-86 7 3 19 2 26-2 7-5-9-11-39-14-65-8-129-43-155-84-17-28-24-32-50-27-38 7-198 69-247 95-21 11-38 19-39 17 0-2-1-56-1-121-1-65-5-120-10-123-13-8-316 140-411 200-59 38-117 48-117 22 0-8 5-18 10-21 17-11 11-25-11-25-12 0-38 15-59 34l-38 34 39 36c25 22 50 36 66 36 25 0 26-1 8-14-22-16-13-49 12-44 22 4 32 54 32 159 1 92-14 78 217 195 248 125 250 126 258 52zm606 27c14-17 7-31-19-38-29-7-46 17-26 37s29 20 45 1zm-119-22c7-21 5-23-21-23-34 0-47 15-29 36 17 20 40 14 50-13zm55-14c9-16-12-33-31-25-14 5-15 9-5 21 15 18 26 19 36 4zm-48-55c-4-24-58-33-58-10 0 19 41 49 53 37 5-5 7-17 5-27zm115 16c3-10-2-25-10-32-12-10-18-8-33 12-14 18-15 27-7 32 22 14 45 8 50-12zm145 5c51-9 109-22 129-30 34-15 35-16 19-34-20-22-124-74-182-91-41-12-43-12-70 18-17 18-52 39-84 50-57 19-72 40-49 68 17 20 42-2 36-33-2-13 0-23 4-23 5 0 9 5 9 10 0 6 8 10 18 10 25 0 42 19 42 47s4 28 128 8zm5595-22c-12-2-27-11-34-19-10-12-9-13 4-8 17 6 57-11 57-26 0-33-72-49-90-20-19 30 23 81 65 79 18-2 18-2-2-6zm-2320-34c-3-11-31-41-61-67-31-26-73-64-94-84-20-21-40-38-43-38-8 0 27 82 49 115 35 51 95 94 133 95 16 0 20-4 16-21zm-1209-5c11-30-3-52-32-50-37 2-51 13-45 35 3 12 16 22 32 24 14 2 29 5 32 6 4 0 10-6 13-15zm-1824-47c29-46 26-96-7-135l-28-31-70 34c-47 23-91 36-138 40-38 4-65 10-60 14 4 4 40 20 79 35 40 15 93 42 120 61 54 39 72 36 104-18zm-373-23c18-14 33-29 33-33s-16-13-36-19c-33-10-39-9-54 10-20 25-65 19-75-11-4-14-19-20-72-25-36-4-68-5-70-2-2 2 3 18 12 36 23 44 83 70 164 70 54 0 70-4 98-26zm5720 0c-3-3-12-4-19-1-8 3-5 6 6 6 11 1 17-2 13-5zm-3574-11c-7-2-19-2-25 0-7 3-2 5 12 5s19-2 13-5zm1267-47c0-22-56-60-130-90-35-14-65-24-67-22-2 1 7 18 19 37 38 57 178 115 178 75zm1718-27c36-23 93-55 126-71l61-30-80 6c-44 3-120 10-170 16-126 14-195 12-228-5-25-13-31-13-53 1-16 11-35 14-54 10-20-4-30-2-30 7 0 6-3 22-6 33-5 21-1 22 88 29 93 7 215 29 226 39 15 16 61 2 120-35zm-5091 25c-3-3-12-4-19-1-8 3-5 6 6 6 11 1 17-2 13-5zm-12-23c9-16-45-45-82-44-38 1-73 23-37 23 11 0 28 6 38 13 22 16 73 21 81 8zm138-7c83-19 147-48 147-68 0-23-105-56-176-56-41 0-63-4-59-10 15-24 170 1 220 36 28 20 45 17 76-12l28-26-26-39c-29-45-46-48-103-18-25 13-82 27-148 35-264 35-290 40-342 74-27 18-50 38-50 46 0 31 122 49 133 20 3-8 23-20 44-25 50-14 106 1 127 34 19 29 33 30 129 9zm-1786-10c-3-3-12-4-19-1-8 3-5 6 6 6 11 1 17-2 13-5zm63-13c0-14-27-21-76-21-59 0-56 18 4 23 26 2 53 4 60 5 6 1 12-2 12-7zm7879-32c-10-6-9-10 6-15 11-5 20-3 23 4 5 16 31 3 43-22 9-19 9-19-4-3-8 9-20 17-27 17-9 0-8-5 3-18 22-24 21-38-3-62-14-14-34-20-67-21-37-1-42-3-23-8 41-12-69-22-116-11-21 5-55 10-75 10-33 0-57 17-83 58-10 17 79 6 151-19 33-11 70-16 99-13 55 5 64 9 64 34 0 26-34 34-118 26-37-3-71-6-77-7-42-3-187 6-190 11-6 9 194 44 300 53 51 4 109-4 94-14zm-4532-5c-3-3-12-4-19-1-8 3-5 6 6 6 11 1 17-2 13-5zm3788-25c43-27 6-25-39 2-20 12-36 23-36 26 0 8 44-8 75-28zm-3845 12c19-5 102-15 183-22 139-12 150-14 159-35 7-15 22-24 42-27 17-2-5-2-49 0-112 5-139 11-162 32-20 19-63 37-63 27 0-12 38-43 75-61l40-19-80-13c-177-31-212-35-270-31-34 2-59 7-58 13s-12 18-28 27c-16 10-29 13-29 8s8-14 18-19c9-6 12-11 6-11-16 0-55 40-49 51 4 5 11 7 16 4 5-4 9 1 9 10 0 8 9 23 19 32 11 9 18 19 16 22s18 5 43 4c45-1 45-1 12 6-29 7-22 9 40 10 41 0 91-3 110-8zm615-1c-3-5-24-15-45-21-32-10-38-15-29-25 17-20-10-27-81-20-54 5-120 28-120 41 0 3 15 5 33 4 27 0 29-2 12-9-18-8-17-9 8-9 15-1 27 4 27 9 0 6 19 10 43 11 32 1 136 19 155 28 2 0 0-3-3-9zm680-14c26-22 28-28 17-51-6-14-24-30-39-36-29-11-169-5-278 11-33 5-106 12-162 16-57 4-103 11-103 15 0 5 12 9 28 9 15 0 90 10 167 21 315 48 331 48 370 15zm-1088 8c-3-3-12-4-19-1-8 3-5 6 6 6 11 1 17-2 13-5zm1446-16c37-14 32-38-13-61-41-21-97-18-137 8-22 15-24 19-11 32 21 20 89 43 113 37 11-3 33-10 48-16zm1672 8c72-8 171-17 220-20 50-4 104-10 120-15l30-9-37-1c-20-1-39-5-42-10-4-5-50-33-104-61-53-29-116-66-139-82l-41-30-86 21c-47 12-127 24-178 28-51 3-96 10-99 16-4 5-3 25 2 45 4 20 4 43 0 51-5 9-5 26 0 39 11 29 45 26 66-5 14-20 13-24-12-47-34-31-14-46 24-18 28 20 28 20 57 1 22-15 45-18 99-17l70 2-70 5c-89 8-123 29-109 68 10 29 45 53 79 53 11 0 79-7 150-14zm-3562-20c-10-13-20-19-22-13-2 5 4 16 15 24 26 19 27 16 7-11zm1661 18c32-12 16-74-20-74-17 0-25 7-30 25-11 46 8 65 50 49zm2589-1c-24-2-62-2-85 0-24 2-5 4 42 4s66-2 43-4zm-173-33c10-18 8-20-27-20-51 0-72 14-47 29 30 17 62 13 74-9zm173 13c-23-2-64-2-90 0s-7 3 42 3c50 0 71-1 48-3zm231-37c21-15 36-29 34-31-5-4-196 23-207 30-6 3-11 13-11 22 0 13 12 15 73 11 62-3 80-8 111-32zm436 30c0-3-4-8-10-11-5-3-10-1-10 4 0 6 5 11 10 11 6 0 10-2 10-4zm-675-16c3-5 14-10 25-10 10 0 20-6 23-14 4-10-19-14-111-19-65-4-128-9-142-12-22-5-21-3 5 9 17 9 62 16 100 17l70 2-54 6c-30 3-56 12-59 19-5 15 133 17 143 2zm-3538-26c-3-3-12-4-19-1-8 3-5 6 6 6 11 1 17-2 13-5zm4177-13c-5-5-22-13-39-16-30-7-30-7 5 12s52 21 34 4zm-6219-5c33-7 82-23 109-35 46-20 48-22 30-35-34-23-101-45-169-56l-66-11-25 30c-43 51-113 53-158 5-23-25-23-25-96-12l-73 13 28 33c32 39 71 60 128 72 65 12 226 11 292-4zm1872 8c-3-3-12-4-19-1-8 3-5 6 6 6 11 1 17-2 13-5zm116-11c-7-2-21-2-30 0-10 3-4 5 12 5 17 0 24-2 18-5zm84 1c-3-3-12-4-19-1-8 3-5 6 6 6 11 1 17-2 13-5zm-224-11c-7-2-19-2-25 0-7 3-2 5 12 5s19-2 13-5zm-2535-29c68-32 160-63 187-64 28 0 45-19 45-48 0-34 60-92 97-92 15 0 38-3 50-6 19-5 20-8 8-20-7-8-23-14-35-14-14 0-24-8-27-21-5-19-11-21-56-15-27 4-101 20-164 37-63 16-122 29-132 29s-23 6-29 13c-14 16-21 227-8 227 5 0 34-12 64-26zm2485 19c-7-2-19-2-25 0-7 3-2 5 12 5s19-2 13-5zm-60-10c-7-2-19-2-25 0-7 3-2 5 12 5s19-2 13-5zm-250-30c-7-2-19-2-25 0-7 3-2 5 12 5s19-2 13-5zm70 0c-7-2-21-2-30 0-10 3-4 5 12 5 17 0 24-2 18-5zm1531-18c9-14 39-39 65-55 75-46 130-139 87-148-32-7-159 138-180 206-10 30 8 28 28-3zm-2885-21c34-43 29-110-13-159l-33-39-28 19c-65 47-119 76-168 91-29 10-54 19-57 21-9 8 26 23 56 23 36 0 149 36 178 56s42 18 65-12zm-1928 0c12-15 11-16-11-9-14 5-42 7-63 6-25-1-36 2-32 9 10 17 91 12 106-6zm1577 0c34-23 27-34-23-34-25 0-45 4-45 9s-10 13-21 16c-17 6-19 9-8 16 22 14 73 10 97-7zm-209-35c27-5 57-19 67-30 18-20 53-25 70-10 5 5 32 11 59 14 34 4 42 3 25-3-21-7-22-8-5-9 18-1 18-3-5-26-44-43-153-50-224-13-35 18-66 50-66 70 0 21 11 22 79 7zm318-70c72-27 166-86 158-99-10-16-105-38-192-44l-83-5v29c0 31-26 53-57 48-9-2-18 2-20 9-3 7 12 16 36 23 22 6 53 22 68 35 16 13 29 25 30 25s28-10 60-21zm5546-52c37-56 114-57 139-1 11 24 16 26 55 20 96-13 205-91 239-171 34-83 6-193-67-259-49-44-112-68-215-81-61-8-79 5-89 65-4 22-10 40-14 40s-13 17-19 38c-6 20-35 66-63 101l-52 65 22 17c50 40 147 36 188-9 24-26 25-31 11-93-2-10 5-13 27-11 28 3 58 27 68 55 8 23 22-4 22-43 0-58-56-100-132-100-56 0-27-20 38-26 157-15 229 156 106 250-41 32-113 46-192 39-60-5-145-37-145-54s-25-9-55 19c-16 15-45 38-62 51-40 27-42 46-5 59 15 6 52 20 82 31 72 27 94 26 113-2zm-5754-21c6-7 9-21 5-30-3-9-2-16 4-16 5 0 13 7 16 16 8 21 50 14 54-8 2-11-6-22-22-29-21-10-29-9-44 4-10 10-26 17-35 17-11 0-17 8-17 23 0 37 18 48 39 23zm5848 2c-16-10-55-10-61 0-2 4 13 7 34 7 22 0 33-3 27-7zm-5899-50c3-13-3-18-22-18-27 0-41 14-31 31 10 16 49 6 53-13zm57-28c3-6-1-13-10-16-19-8-30 0-20 15 8 14 22 14 30 1zm-55-20c0-5 7-10 15-10 19 0 58-38 51-49-3-5-17-6-31-3-20 3-24 9-20 23 4 11 2 19-4 19s-11-4-11-9c0-16-28-20-46-6-15 11-16 15-5 29 15 18 51 22 51 6zm114 4c21-8 20-40-1-48s-48 17-40 38c7 17 16 19 41 10zm6331-28c-6-29-3-37 19-51 29-19 69-14 100 13 18 17 18 16 2-16-9-18-29-37-44-43-36-14-89-3-102 21-16 31-12 88 8 99 24 14 24 15 17-23zm-439 0c37-17 55-33 67-59 20-40 22-86 6-120-11-25-57-57-81-57-7 0 1 9 18 19 63 38 70 128 13 179-30 26-69 47-69 36 0-3 9-14 20-26 22-24 25-40 10-69-15-26-30-24-30 5 0 46-18 73-62 95l-43 21h50c31 0 69-9 101-24zm-4268-3c60-37 69-84 26-140-19-26-32-33-58-33-46 0-95 19-106 41-10 17-8 17 24 4 62-26 136 13 136 72 0 32-15 29-18-3-3-36-17-51-53-59-41-9-87 11-105 46-17 34-11 36 23 9 30-23 60-25 87-5 14 11 17 22 13 50-7 40-6 41 31 18zm4024-120c55-82 75-121 93-179 12-40 12-44-5-44-30 0-87 28-125 61-41 37-68 112-55 157 10 38 29 72 39 72 4 0 28-30 53-67zm1838-51v-118l-87-27c-96-29-254-67-281-67-9 0-22 10-27 23-6 12-21 23-35 25-42 6-44 19-4 27 74 13 113 50 126 119 2 13 18 23 53 33 28 8 59 18 70 22 11 5 36 15 55 22s53 23 75 35c22 13 43 23 48 24 4 0 7-53 7-118zm-6324 87c42-6 102-21 132-35 52-23 54-25 36-38-19-14-133-49-190-59-26-5-38 0-69 29-49 44-107 48-150 8-26-24-32-25-94-18-36 3-70 9-74 11-5 3 8 22 28 43 62 63 198 85 381 59zm-516-92c78-22 85-25 90-53 13-62 53-98 120-106 35-4 40-38 6-38-14 0-31-9-40-22l-15-21-98 23c-102 23-172 41-235 60l-38 11v108c0 59 2 110 5 113 3 2 31-8 62-24 32-15 96-39 143-51zm6318 37c26-8 29-24 4-24-10 0-22-4-27-9-6-5-25-12-44-15-19-2-38-11-43-18-6-8-7-4-2 12 11 42 24 52 79 59 6 0 20-2 33-5zm-5559-50c31-39 27-92-9-142-17-23-37-42-45-42s-38 18-67 40-57 40-62 40c-20 0-126 43-126 51 0 5 16 9 36 9 48 0 117 18 173 46 60 30 75 29 100-2zm-356 2c28-22 20-36-20-36-34 1-83 27-83 44 0 12 85 5 103-8zm6107-1c0-84-176-140-260-82-45 30-47 43-8 51 23 4 43 1 65-11 32-17 33-17 61 10 17 17 39 27 58 27 16 0 36 5 44 10 22 14 40 12 40-5zm-6305-37c22-5 50-19 62-30 19-18 26-19 51-9 34 14 97 11 96-4-2-19-79-55-117-55-93 0-187 50-187 99 0 23-1 23 95-1zm6013-51c8-9 33-22 54-28 31-8 37-13 28-24-6-7-22-16-35-19-20-5-25-13-25-36 0-24-4-30-21-30-34 0-162 20-191 31-66 22-88 32-88 38 0 10 166 91 187 91 10 0 29 6 43 13 21 11 26 11 29-3 1-8 10-23 19-33zm-5795 36c-7-2-19-2-25 0-7 3-2 5 12 5s19-2 13-5zm167-91c41-21 76-42 78-49 5-18-89-42-193-49l-93-7 4 24c6 33-7 49-41 53-33 4-47 26-17 26 25 0 89 26 97 41 11 17 84 0 165-39zm5768-26c-2-11-10-22-20-24-21-4-36 37-17 48 20 13 40-1 37-24zm72-16c0-18-19-30-46-30-20 0-18 37 3 48 22 13 43 4 43-18zm-6127 8c7-23-5-49-22-46-9 2-17 15-19 31-3 21 1 27 17 27 10 0 21-6 24-12zm6001-7c14-16 15-20 2-30-11-9-20-10-35-1-31 16-25 45 10 49 3 1 13-7 23-18zm-5935-48c-12-13-51-18-62-7-10 10 5 35 27 44 27 10 52-16 35-37zm-131 25c20-20 14-38-12-38-28 0-40 14-32 35 7 18 28 19 44 3zm6122-22c0-17-27-29-35-16-4 6-3 15 0 20 9 15 35 12 35-4zm-1740-5c0-5-9-7-20-4s-20 7-20 9 9 4 20 4 20-4 20-9zm1811-17c10-13 10-17-2-25-8-5-19-9-26-9-15 0-35 35-26 44 12 11 40 6 54-10zm-6128-9c1-5-6-11-15-13-11-2-18 3-18 13 0 17 30 18 33 0zm6005-2c-4-20-35-30-50-15s0 32 28 32c19 0 25-5 22-17zm-6058-13c0-5 11-10 24-10 22 0 36-16 36-41 0-5-11-9-25-9-19 0-25 5-25 22s-3 19-12 10c-16-16-45-15-51 2-3 7 0 19 6 25 14 14 47 15 47 1zm130-9c0-26-29-35-51-15-24 21-16 34 22 34 22 0 29-5 29-19zm5990-10c0-20-17-31-37-24-7 3-13 13-13 24 0 14 7 19 25 19s25-5 25-19zm-670-43l64-14-59-21c-91-33-103-35-175-35-47 0-81 7-111 21l-44 20 150 2c83 1 156 1 163 0 6-1 12 3 12 9s-48 10-137 10c-75 0-133 3-130 7 4 3 27 11 52 18 47 11 94 8 215-17zm-580-3c0-10-10-15-32-15-31 1-32 1-14 15 25 19 46 19 46 0zm-17-32c-7-2-21-2-30 0-10 3-4 5 12 5 17 0 24-2 18-5zm150-65c18-12 53-43 78-69 26-26 56-52 68-58 11-7 21-16 21-22 0-12-59-3-115 19-46 18-147 113-127 120 7 2 25-8 40-23 36-36 107-85 124-85 7 0 4 6-7 12-24 14-155 119-155 124 0 12 46 1 73-18zm-299-14c9-23 8-24-14-24-19 0-27 20-13 33 11 11 20 8 27-9zm-100-371c-10-7-29-13-43-13-25 1-25 1 5 14 18 8 35 20 40 27 6 11 9 10 12-1 3-7-3-19-14-27z"
       id="path10"
       style="fill:#ffffff;fill-opacity:1" />
    <path
       d="m7520 3782c-33-16-56-62-31-62 6 0 11 6 11 13 0 29 93 50 103 25 4-9 6-8 6 3 1 19-18 39-38 39-9 0-32-8-51-18z"
       id="path12"
       style="fill:#ffffff;fill-opacity:1" />
    <path
       d="m7698 3793c-17-4-33-32-23-41 2-3 11 1 19 7 22 18 60 9 71-16 13-30 25-29 25 3 0 19-8 28-35 40-19 7-36 13-37 13-2-1-10-3-20-6z"
       id="path14"
       style="fill:#ffffff;fill-opacity:1" />
    <path
       d="m7372 3703c-16-6-42-56-42-81 0-11 7-23 16-26 13-5 15-1 10 17-8 34 20 70 50 64 27-5 34 17 8 27-18 7-23 7-42-1z"
       id="path16"
       style="fill:#ffffff;fill-opacity:1" />
    <path
       d="m7855 3700c-3-5 3-10 14-10s28-11 39-25c23-28 31-32 28-10-6 38-65 71-81 45z"
       id="path18"
       style="fill:#ffffff;fill-opacity:1" />
    <path
       d="m7287 3533c-11-11-8-101 4-109 6-3 16-1 22 6 9 10 9 14 0 17-18 7-16 53 4 75 15 17 15 18-4 18-11 0-23-3-26-7z"
       id="path20"
       style="fill:#ffffff;fill-opacity:1" />
    <path
       d="m7310 3341c0-34 41-88 58-77 8 5 3 14-14 30-17 14-26 32-26 49 0 15-4 27-9 27s-9-13-9-29z"
       id="path22"
       style="fill:#ffffff;fill-opacity:1" />
    <path
       d="m4762 3780c-22-10-39-36-29-46 3-3 15 4 27 16 17 17 28 20 52 15 23-6 29-4 26 6-6 17-45 21-76 9z"
       id="path24"
       style="fill:#ffffff;fill-opacity:1" />
    <path
       d="m4922 3778c-21-21-13-27 23-21 26 4 41 1 55-12 19-18 20-17 20 4 0 34-72 55-98 29z"
       id="path26"
       style="fill:#ffffff;fill-opacity:1" />
    <path
       d="m4627 3702c-18-20-23-52-8-52 5 0 11 9 14 20 3 12 14 20 26 20 25 0 28 15 5 24-21 8-19 9-37-12z"
       id="path28"
       style="fill:#ffffff;fill-opacity:1" />
    <path
       d="m5082 3708c-7-7-12-16-12-22s5-5 12 2c31 31 85-8 74-53-7-29 1-32 20-7 21 27 16 49-15 71-33 24-61 27-79 9z"
       id="path30"
       style="fill:#ffffff;fill-opacity:1" />
    <path
       d="m4540 3595c-22-27-5-37 19-11 19 20 21 26 9 26-9 0-21-7-28-15z"
       id="path32"
       style="fill:#ffffff;fill-opacity:1" />
    <path
       d="m5190 3564c0-4 8-12 17-19 12-9 18-27 18-54 0-44 5-50 25-26 14 17 5 69-17 90-14 15-43 21-43 9z"
       id="path34"
       style="fill:#ffffff;fill-opacity:1" />
    <path
       d="m5210 3367c0-13-10-36-21-51-28-35-16-46 16-16 25 24 34 73 15 85-6 3-10-4-10-18z"
       id="path36"
       style="fill:#ffffff;fill-opacity:1" />
    <path
       d="m8273 3543c-7-2-13-8-13-13 0-10 38-1 46 11 6 10-13 11-33 2z"
       id="path38"
       style="fill:#ffffff;fill-opacity:1" />
    <path
       d="m8177 3465c-32-30-54-55-49-55 4 0 35 25 68 55 32 30 55 54 49 54-5 0-36-24-68-54z"
       id="path40"
       style="fill:#ffffff;fill-opacity:1" />
    <path
       d="m4260 3491c25-17 49-31 53-31 16 0-48 47-73 54-17 5-11-2 20-23z"
       id="path42"
       style="fill:#ffffff;fill-opacity:1" />
    <path
       d="m5336 3138c-9-5-16-17-16-27s-9-26-20-36-20-26-20-36c0-11 9-24 20-31 22-14 28-68 8-68-7 0-27 15-46 33-18 17-30 25-27 16 16-43 121-83 151-58 11 9 18 9 26 1 28-28 78 3 78 46 0 12 5 22 10 22 6 0 16 12 22 26 11 23 10 29-12 46-13 11-25 26-26 35-6 37-13 41-72 40-33 0-67-4-76-9zm62-41c2-16-2-35-8-42-16-19-5-47 17-44 46 7 85-29 62-57-16-19-36-17-48 4-9 16-11 16-24-2-16-22-50-18-55 7-2 10 4 27 14 38 17 19 16 19-13 13-26-5-32-2-38 16-9 28 10 42 45 34 23-5 24-5 7 14-27 30-22 54 11 50 21-2 28-9 30-31zm56 27c9-3 16-11 16-17 0-18-31-46-46-40-17 6-18 35-2 51 14 14 12 14 32 6zm54-86c-2-18-9-23-32-21-34 3-40 7-33 28 4 9 19 15 37 15 27 0 31-3 28-22z"
       id="path44"
       style="fill:#ffffff;fill-opacity:1" />
    <path
       d="m3910 2332c-19-15-20-20-7-30 16-13 38-15 202-11 97 2 105 3 65 11-25 5-70 18-101 29-71 24-130 25-159 1z"
       id="path46"
       style="fill:#ffffff;fill-opacity:1" />
    <path
       d="m4528 2343c12-2 30-2 40 0 9 3-1 5-23 4-22 0-30-2-17-4z"
       id="path48"
       style="fill:#ffffff;fill-opacity:1" />
    <path
       d="m5185 2358c-132-12-137-17-15-13 115 4 149-2 136-24-5-7-49-12-119-12l-112-2 103-10c112-10 170-4 179 19 15 39-47 55-172 42z"
       id="path50"
       style="fill:#ffffff;fill-opacity:1" />
    <path
       d="m7225 2353c-34-9-46-23-35-43 12-23 85-32 165-21 61 9 53 11-55 14-41 2-55 6-55 17 0 12 20 16 95 21 52 3 91 6 85 7-28 6-183 10-200 5z"
       id="path52"
       style="fill:#ffffff;fill-opacity:1" />
    <path
       d="m7510 2294c-47-7-103-17-125-22-68-16 0-14 105 4 52 8 108 16 123 16 15 1 30 5 33 10 7 10-30 8-136-8z"
       id="path54"
       style="fill:#ffffff;fill-opacity:1" />
    <path
       d="m8063 2293c9-2 23-2 30 0 6 3-1 5-18 5-16 0-22-2-12-5z"
       id="path56"
       style="fill:#ffffff;fill-opacity:1" />
    <path
       d="m6398 3933c-9-10-18-25-20-33-6-18 9-50 24-50 7 0 7 5-2 14-16 20-9 60 12 64 12 2 15-2 11-18-5-17-2-21 12-19 25 5 29 23 10 43-21 20-28 20-47-1z"
       id="path58"
       style="fill:#ffffff;fill-opacity:1" />
    <path
       d="m6084 3926c-18-14-18-15-1-33 17-17 19-17 31 0 7 9 16 17 20 17 11 0 6-46-6-58-7-7-8-12-2-12 21 0 36 44 25 73-12 30-37 35-67 13z"
       id="path60"
       style="fill:#ffffff;fill-opacity:1" />
    <path
       d="m7060 3145c-7-8-12-26-12-40s-6-25-14-25c-24 0-29-49-6-73 10-12 22-29 25-37 4-12 6-12 6 2 1 17 29 38 50 38 13 0 14-39 2-59-5-8-16-11-25-8-9 4-16 1-16-5 0-7 14-8 41-4 25 4 46 2 54-4 7-6 24-8 37-5 20 5 23 11 20 39-2 21 2 37 12 45 22 18 20 54-4 76-11 10-20 26-20 36 0 26-35 43-61 28-15-8-24-8-32 0-16 16-42 14-57-4zm44-11c9-3 16-16 17-28 1-18 3-17 12 7 8 20 17 27 32 25 30-4 26-46-7-66-45-27-111 9-95 52 7 17 16 20 41 10zm-18-74c20 0 17-17-6-40-16-16-25-18-40-10-36 19-20 66 18 54 8-2 20-4 28-4zm144-15c0-22-4-25-40-25-28 0-40 4-40 15 0 17 28 34 58 35 17 0 22-6 22-25zm-100-15c0-5-4-10-10-10-5 0-10 5-10 10 0 6 5 10 10 10 6 0 10-4 10-10zm62-38c13-11 15-19 7-33-20-37-59-11-59 40 0 23 21 20 52-7z"
       id="path62"
       style="fill:#ffffff;fill-opacity:1" />
    <path
       d="m6874 3088c-1-24-3-60-4-80-1-21 3-46 9-55 7-13 8-2 4 38-6 62 8 85 32 53 19-25 19-9 1 24-8 15-17 35-20 45-10 31-21 18-22-25z"
       id="path64"
       style="fill:#ffffff;fill-opacity:1" />
    <path
       d="m10290 3048c0-36 4-35 14 5 4 16 2 27-4 27-5 0-10-14-10-32z"
       id="path66"
       style="fill:#ffffff;fill-opacity:1" />
    <path
       d="m10291 2968c-1-27 3-48 7-48s6 17 4 38c-5 58-10 62-11 10z"
       id="path68"
       style="fill:#ffffff;fill-opacity:1" />
    <path
       d="m8223 2961c25-30 31-44 28-63 0-5 4-8 10-8 24 0-22 89-51 98-8 3-2-9 13-27z"
       id="path70"
       style="fill:#ffffff;fill-opacity:1" />
    <path
       d="m10304 2862c-12-2-30-12-40-23-9-10-27-19-40-19-24 0-39-26-29-52 5-11-9-14-67-16-71-3-113-10-190-34-33-10-41-9-59 8-12 10-31 37-42 59-14 28-22 35-25 23-3-16 38-91 57-102 6-4-2-19-18-34-15-15-33-37-40-49-24-47-6-140 35-173 13-11 12-16-7-37-25-26-39-29-39-9 0 31-46 43-235 61-104 9-197 17-205 17-19 0-196 24-275 38-78 14-154 39-185 60-46 31-55 34-35 11 43-50 161-91 318-111 42-6 112-15 155-20 42-6 104-13 137-15 136-11 266-25 289-31 16-4 26-15 29-34 7-32 0-79-14-96-10-13-122-29-294-44-110-9-219-23-398-51-85-14-159-40-202-73-40-31-45-32-45-6 0 30 83 87 143 99 90 17 94 19 62 20-28 1-102 37-93 46 2 2 26-3 53-11 40-13 81-15 205-10 208 7 460 36 460 53 0 20-30 18-290-22-162-25-331-25-393-1-27 10-51 16-54 13s2-19 10-36c17-34 16-36-29-45-31-7-65-37-97-86-11-15-17-45-17-81 0-93 58-156 166-180 59-13 94-39 54-39-13 0-21-2-18-6 3-3 40-2 82 2 83 7 96 19 18 15-47-2-49-1-59 34-9 28-8 35 2 35 19 0 85 32 123 58 37 27 82 98 82 130 0 30-16 28-24-3-8-32-79-73-139-81l-46-7 5 34c2 19 0 41-5 49-9 13-15 10-38-17-31-34-87-49-129-33-30 12-30 26-1 51 49 42 146 68 332 89 99 11 381 46 493 61 74 10 86 14 100 38l17 28 22-23c19-20 20-24 7-35-31-25-57-99-36-99 4 0 13 20 20 44 6 24 19 46 28 50 9 3 43-7 78-24 61-30 141-52 121-33-5 5-44 22-85 38-41 15-79 31-83 35-5 4 15 18 43 31 29 13 47 25 42 27-6 2-31-6-56-17-25-12-47-21-49-21s-17 12-32 26c-25 23-26 28-15 49 7 14 23 34 36 46l23 21 53-25c84-39 150-50 293-45 108 3 138 7 180 26 60 28 95 59 95 85 0 16 5 18 28 14 42-8 190-64 244-92 26-14 50-25 53-25s4 55 4 123c-1 97 2 122 12 120 19-2 80-24 99-34 8-5 44-23 80-41 36-17 110-58 165-91s103-62 108-64c4-2 7 0 7 5 0 13-209 142-230 142-4 0-10 3-12 8-4 8-112 62-178 88-25 10-48 22-51 26-9 14-8 163 1 178 11 18 103-19 314-125 93-47 172-83 175-79 7 8 8 7-139 89-63 36-119 65-124 65s-55 21-111 46c-57 25-111 44-120 42-13-2-16-20-18-102-2-65-6-101-14-103-6-2-26 3-43 12-55 29-223 77-288 82-44 4-60 9-53 16 18 18 12 46-13 62-13 9-28 14-34 13-6-2-17 4-24 13-7 8-23 13-34 11zm24-47c1-1 0-10-4-19-9-24-38-15-42 13-3 20-1 22 20 16 13-4 24-9 26-10zm62-35c0-25-30-34-49-15-15 15-14 17 2 30 23 17 47 9 47-15zm-123 4c8-22-11-37-36-29-31 10-28 45 4 45 14 0 28-7 32-16zm53-33c0-14-18-23-30-16-6 4-8 11-5 16 8 12 35 12 35 0zm-115-46c0-30 2-31 75-52 8-2-10-13-40-23s-62-28-72-40c-13-16-23-19-45-14-46 11-203 95-203 109 0 16 72 35 165 45 111 12 119 10 120-25zm70 25c10-16-14-50-35-50-10 0-21 4-24 9-9 14 4 39 22 44 28 8 31 7 37-3zm114 1c23-15 5-44-24-39-14 3-25 2-25-1 0-4-6-15-13-25-12-17-15-17-30-2-21 22-11 46 19 46 15 0 24 6 24 15 0 16 27 20 49 6zm141-30c90-20 260-68 267-75s15-205 9-221c-5-13-11-12-43 4-55 28-150 66-205 82-40 11-47 17-52 44-9 45-53 83-114 97-56 14-62 27-18 39 16 5 35 17 43 28 17 25 8 25 113 2zm-592-50c32-26 84-52 192-98 29-13 24-15-70-32-75-14-127-30-155-48-27-18-30-17-60 12-38 39-36 108 6 158 17 20 35 37 40 37 6 0 27-13 47-29zm461-43c54-17 118-98 78-98-44 0-134 26-145 42-14 19-57 25-67 8-8-13-37-13-72 1l-28 10 25 19c46 36 130 43 209 18zm-209-68c13-8 13-10-2-10-9 0-20 5-23 10-8 13 5 13 25 0zm-30-40c6-11 24-27 40-35 46-24 84-19 121 16 27 25 38 29 68 25 20-4 51-7 69-8 39-3 40-11 7-54-38-49-122-74-256-74-58 0-129 4-158 10-66 12-153 50-148 64s111 56 167 66c71 12 79 11 90-10zm116 1c28-22 22-31-23-31-34 0-83 24-83 41s81 9 106-10zm-1342-493c22 0 52 10 68 22 22 16 28 18 28 6 0-9-14-25-30-38-17-12-26-25-20-28 17-11 127 8 170 29 46 22 53 14 13-16-52-38-94-54-144-55-54-2-62-9-24-26 36-17 31-33-7-25-55 10-117 44-139 75-12 16-24 48-27 71l-5 42 38-30c30-22 49-29 79-27z"
       id="path72"
       style="fill:#ffffff;fill-opacity:1" />
    <path
       d="m5830 2809c0-11 9-34 21-50 23-32 11-38-31-14-37 21-50 18-50-10 0-22 4-25 35-25 38 0 79-18 135-58l35-26-32 35c-38 40-63 96-63 139 0 25-4 30-25 30-19 0-25-5-25-21z"
       id="path74"
       style="fill:#ffffff;fill-opacity:1" />
    <path
       d="m5981 2800c-5-16-7-30-3-30s13 14 19 30c6 17 8 30 3 30-4 0-13-13-19-30z"
       id="path76"
       style="fill:#ffffff;fill-opacity:1" />
    <path
       d="m6535 2813c4-10 10-28 12-40 3-13 9-23 14-23s9 2 9 4c0 11-31 76-36 76-3 0-3-8 1-17z"
       id="path78"
       style="fill:#ffffff;fill-opacity:1" />
    <path
       d="m6562 2715c0-16 2-22 5-12 2 9 2 23 0 30-3 6-5-1-5-18z"
       id="path80"
       style="fill:#ffffff;fill-opacity:1" />
    <path
       d="m11844 2606c-17-8-41-28-53-45-15-20-31-31-47-31-37 0-31-19 20-58 37-29 98-29 137-1 30 21 40 45 14 35-22-8-45 4-45 23 0 43 59 56 84 19 36-52 8-110-60-123-49-9-274 5-304 19-14 6-33 28-43 49-17 36-18 37-41 21-35-22-47-63-30-102 18-43 3-40-48 8-45 42-57 46-89 30-23-13-27-75-5-83 20-8 37 15 26 33-28 44 24 40 72-5l38-35-38-35c-46-42-112-49-70-7 16 16-4 37-26 29-23-9-20-53 5-70 28-20 50-12 100 34 45 42 58 44 39 9-23-42 10-120 50-120 11 0 20 11 23 30 10 48 54 60 222 60 129 0 145-2 169-21 28-22 35-64 16-100-15-27-66-26-75 1s12 52 36 45c29-10 22 9-10 28-36 21-99 22-151 1-43-17-54-44-18-44 13 0 42-19 68-45 40-39 51-45 92-46 61-3 87 25 88 92 0 89-43 109-236 109-138 0-175-8-205-45-14-16-19-17-32-7-22 18-27 48-11 70 12 18 29 19 253 21 214 2 240 0 249-15 11-20 49-11 55 14 3 9 4 1 4-18l-2-35 57-3c65-3 193 31 202 54 10 27-6 43-62 59-31 10-69 21-84 25-29 9-96 3-113-10-5-4-27-17-48-29-34-19-53-21-222-21-130 0-191 4-205 12-16 10-24 10-39 1-22-14-38-2-41 32-7 60 9 71 42 30 26-33 75-45 183-45 149 0 192 8 231 45s43 67 17 113c-19 33-61 62-90 62-10-1-32-7-49-14zm-48-117c4-7 23-9 51-5s42 2 38-4c-9-15-89-12-111 5-17 13-17 14-2 15 9 0 20-5 24-11zm84-253c-3-4-30-10-60-12-51-3-54-2-35 12 21 16 104 16 95 0z"
       id="path82"
       style="fill:#ffffff;fill-opacity:1" />
    <path
       d="m6806 2575c4-8 11-15 16-15 6 0 5 6-2 15-7 8-14 15-16 15s-1-7 2-15z"
       id="path84"
       style="fill:#ffffff;fill-opacity:1" />
    <path
       d="m11312 2550c0-19 2-27 5-17 2 9 2 25 0 35-3 9-5 1-5-18z"
       id="path86"
       style="fill:#ffffff;fill-opacity:1" />
    <path
       d="m6835 2540c3-5 8-10 11-10 2 0 4 5 4 10 0 6-5 10-11 10-5 0-7-4-4-10z"
       id="path88"
       style="fill:#ffffff;fill-opacity:1" />
    <path
       d="m8860 2424c0-22 32-51 69-64 23-7 41-16 41-20s-17-12-39-18c-21-7-44-19-51-27-17-20-8-19 32 4 47 27 89 30 413 32 160 1 299 6 310 10s-127 8-306 8c-358 1-409 8-448 58-12 14-21 22-21 17z"
       id="path90"
       style="fill:#ffffff;fill-opacity:1" />
    <path
       d="m3676 2385c-3-8-22-25-42-37-21-12-32-24-26-26 23-7 94 59 79 74-2 3-7-2-11-11z"
       id="path92"
       style="fill:#ffffff;fill-opacity:1" />
    <path
       d="m10298 2333c7-3 16-2 19 1 4 3-2 6-13 5-11 0-14-3-6-6z"
       id="path94"
       style="fill:#ffffff;fill-opacity:1" />
    <path
       d="m10798 2331c10-6 12-38 11-124l-2-117-81-25c-107-32-222-61-268-68-33-5-39-3-50 21-9 18-22 28-41 30-41 5-33 22 11 22 20 0 53 8 72 19 34 18 39 27 55 104 3 17 12 27 24 27 44 0 260 85 247 97-3 3-25-4-48-15-24-11-83-32-131-47-70-22-90-25-102-15s-15 10-15-3c0-10-18-18-62-26-59-10-62-10-86 14-24 25-31 27-72 27-44 0-53-3-82-32-19-20-40-30-59-30-37 0-38-17-1-22 24-4 23-5-16-17-54-15-114-45-169-84-24-17-49-27-57-24-14 6-49 54-60 82-2 6-6 7-10 3-10-8 22-68 47-88 20-16 20-17-17-71-20-29-36-64-36-76 0-32 16-29 23 5 3 15 20 46 37 70 23 32 36 42 48 37 96-41 158-54 254-56 102-2 128-10 106-36-14-17-28-16-50 4-14 13-18 13-18 2 0-23 17-42 37-44 10 0 30-9 43-18 33-23 61-21 67 3 3 13 14 20 28 20 31 0 49 24 42 58-6 27-4 29 33 30 22 1 56 8 77 16 21 7 56 18 78 24s69 20 105 32c99 32 94 33 100-35 4-45 7-55 13-38 4 12 5 38 1 58-7 41 7 65 40 65 11 0 32 6 46 14 14 7 57 30 95 51 81 44 226 138 221 143-2 1-37-17-77-41-82-48-259-134-294-143-22-5-23-3-29 83-3 48-5 100-3 116 4 22 0 27-17 27-15 0-17-3-8-9zm-500-100c10-6 8-10-11-15-45-11-45-61 0-72 18-5 31 0 51 19 36 33 142 47 142 18 0-24-42-68-77-82-15-6-58-11-94-12-53 0-73 5-98 22-38 27-40 49-4 53 39 4 42 28 4 28-37 0-40 13-9 34 24 17 75 21 96 7zm-117-116c19-21 43-37 65-41 19-3 34-9 34-13s-17-16-37-27c-28-15-38-27-38-44 0-23-3-24-65-21-107 4-237 43-222 67 17 26 175 106 225 113 4 0 21-15 38-34zm147-87c2-9-6-22-17-27-17-9-22-8-31 9-6 11-8 25-5 31 10 16 49 6 53-13zm66-13c7-20-41-52-55-38-15 15 7 53 30 53 11 0 21-7 25-15zm-120-20c6-18-16-30-39-21-8 3-15 12-15 21 0 20 46 20 54 0zm54-37c-7-19-38-22-38-4 0 10 9 16 21 16s19-5 17-12zm66-14c8-21-1-34-24-34-22 0-34 15-26 35 7 20 42 19 50-1zm-59-43c0-8-8-19-17-25-22-13-41 3-32 28 8 20 49 18 49-3z"
       id="path96"
       style="fill:#ffffff;fill-opacity:1" />
    <path
       d="m10376 2322c16-15 104-63 104-57 0 10-83 65-99 65-9 0-11-3-5-8z"
       id="path98"
       style="fill:#ffffff;fill-opacity:1" />
    <path
       d="m2955 2310c74-12 597-12 615 0 10 6-102 9-325 9-203-1-320-5-290-9z"
       id="path100"
       style="fill:#ffffff;fill-opacity:1" />
    <path
       d="m6663 2308c-28-14-34-41-16-68 13-19 22-21 54-16l39 6-5-35c-5-44-37-90-75-110-28-14-105-23-115-14-2 3 7 21 20 40 34 48 37 83 6 87-32 5-41-7-43-56-2-72-10-68-112 75-62 87-82 101-116 83-43-23-24-60 64-120 39-26 87-62 106-78l35-30-30-6c-62-13-80-22-83-40-7-34 20-36 74-5 28 16 54 29 58 29 14 0 4-69-16-110-31-62-128-108-128-62 0 28-29 62-54 62-29 0-46-18-46-50 0-41 28-60 91-61l54-1-35-15c-19-8-43-22-53-31-17-15-20-14-42 13-24 29-25 29-40 11-8-10-16-24-18-30-2-7-10-6-22 4-10 8-30 20-44 26-25 10-25 11 16 17 47 8 73 36 73 79 0 33-39 63-69 53-22-7-37-53-22-68 22-22 10-29-35-24-70 7-124 69-124 140 0 47 7 50 49 22 40-28 79-32 87-10 10 24-14 43-62 51-24 3-44 8-44 11 0 7 53 51 122 100 74 53 94 80 83 112-8 27-62 30-72 4-4-10-13-24-20-31s-38-49-70-93c-31-43-60-79-65-79-4 0-8 15-8 33 0 64-39 104-63 66-8-13-3-28 21-67 35-58 31-63-42-52-39 6-57 15-83 44-44 48-46 91-4 99 67 14 63 97-3 97-44 0-59-24-57-94 1-66 34-116 95-144 25-12 56-22 68-23 22 0 22-1 3-9-11-5-14-9-7-9 7-1 22 4 33 9 15 8 19 7 19-5 0-8-6-15-12-15-9-1-8-5 3-13 8-7 21-33 28-59 15-52 62-104 107-118l29-8-33-1-34-1 30-37c41-54 88-142 108-207 10-31 22-56 27-56s6 8 2 18c-4 9-12 31-17 47-18 55-46 110-81 162-20 29-31 55-26 58 5 4 9 2 9-3 0-6 11-13 25-16 14-4 42-30 67-64 23-31 44-59 46-62s8 4 14 15c30 52 148 154 148 127 0-5-13-26-30-47-32-40-80-135-80-157 1-7 16 19 34 59 19 39 53 92 76 117 37 40 40 46 21 46-31 0-26 14 14 41 32 22 75 89 75 117 0 7 5 12 11 12 7 0 9 10 5 25-6 23-4 25 19 19 20-5 24-3 19 9-4 11 0 16 13 15 35-3 90 23 123 57 29 30 34 43 38 95 4 53 2 64-19 86-24 25-50 29-86 12zm-373-562c-16-16-22-17-34-6-20 16-20 25 0 45 15 15 18 15 34-2 17-17 17-19 0-37z"
       id="path102"
       style="fill:#ffffff;fill-opacity:1" />
    <path
       d="m3585 2290c27-12 43-12 25 0-8 5-22 9-30 9-10 0-8-3 5-9z"
       id="path104"
       style="fill:#ffffff;fill-opacity:1" />
    <path
       d="m3630 2275c0-2 10-10 23-16 20-11 21-11 8 4-13 16-31 23-31 12z"
       id="path106"
       style="fill:#ffffff;fill-opacity:1" />
    <path
       d="m8862 2250c0-14 2-19 5-12 2 6 2 18 0 25-3 6-5 1-5-13z"
       id="path108"
       style="fill:#ffffff;fill-opacity:1" />
    <path
       d="m2740 2252c0-5 9-17 20-27 16-14 46-20 147-26 145-9 173-12 368-40 257-36 326-54 405-106l25-17-23 26c-31 35-104 65-210 88-80 17-403 60-567 75-112 10-127 13-138 24-13 13-27 14-27 3z"
       id="path110"
       style="fill:#ffffff;fill-opacity:1" />
    <path
       d="m3675 2230c3-5 8-10 11-10 2 0 4 5 4 10 0 6-5 10-11 10-5 0-7-4-4-10z"
       id="path112"
       style="fill:#ffffff;fill-opacity:1" />
    <path
       d="m5714 2221c21-23 26-26 26-11 0 5-10 15-22 21-23 12-23 12-4-10z"
       id="path114"
       style="fill:#ffffff;fill-opacity:1" />
    <path
       d="m6822 2217c-26-28-29-43-4-22 9 8 26 21 37 29 16 12 17 15 4 16-8 0-25-10-37-23z"
       id="path116"
       style="fill:#ffffff;fill-opacity:1" />
    <path
       d="m1228 2185c-3-14-1-28 3-31 5-3 9 9 9 25 0 38-6 40-12 6z"
       id="path118"
       style="fill:#ffffff;fill-opacity:1" />
    <path
       d="m1227 2111c-17-78-24-70 148-161 90-48 314-140 341-140s14 25-14 26c-38 1-85 22-287 124l-170 87-5 49c-5 48-5 49-13 15z"
       id="path120"
       style="fill:#ffffff;fill-opacity:1" />
    <path
       d="m4437 2114c-15-8-32-25-37-38-6-18-18-24-52-28-58-7-149-52-191-97-40-43-77-126-77-175 0-20 10-57 21-82 21-44 80-114 97-114 5 0-10 19-33 43-65 69-80 156-41 249 31 74 139 149 236 164 31 5 40 3 40-8 0-40 73-72 110-48 11 7 6 10-22 10-20 0-40 5-43 10-4 7 2 9 18 4 14-3 33-2 42 4 14 7 12 10-15 15-26 6-31 11-28 29 3 20 8 23 52 22h49l-32 28c-35 32-54 34-94 12zm62-8c-2-2-17-6-34-10-22-5-26-4-15 4 14 9 59 15 49 6z"
       id="path122"
       style="fill:#ffffff;fill-opacity:1" />
    <path
       d="m7299 2047c-41-39-84-83-95-97-10-14 22 14 73 63 51 48 97 87 103 87 5 0 10 5 10 10 0 20-16 9-91-63z"
       id="path124"
       style="fill:#ffffff;fill-opacity:1" />
    <path
       d="m11285 2101c-18-17-269-157-315-175-105-42-132-48-141-35-6 10-9 9-15-4-17-44 39-37 168 22 27 12 58 26 70 31 13 6 66 37 118 70s105 65 118 72c12 6 22 15 22 20 0 11-14 10-25-1z"
       id="path126"
       style="fill:#ffffff;fill-opacity:1" />
    <path
       d="m6812 2080c-18-29-15-36 8-15 20 18 26 35 12 35-4 0-13-9-20-20z"
       id="path128"
       style="fill:#ffffff;fill-opacity:1" />
    <path
       d="m3290 2063c0-17 36-93 43-93 5 0 5 6 0 13-4 7 2 6 17-4 14-8 32-20 40-25 40-24 180-45 180-26 0 16-48 35-96 38-63 2-130 36-152 75-16 27-32 38-32 22z"
       id="path130"
       style="fill:#ffffff;fill-opacity:1" />
    <path
       d="m6731 2055c-18-8-48-15-67-15-18 0-36-4-39-10s4-10 18-10c35 0 127 29 127 40 0 12 2 12-39-5z"
       id="path132"
       style="fill:#ffffff;fill-opacity:1" />
    <path
       d="m4543 2030c-6-16-8-30-3-30 4 0 10 7 14 15 7 19 49 19 101 0 47-17 73-19 60-6-6 5-38 17-72 25-34 9-68 19-75 21-8 3-18-7-25-25z"
       id="path134"
       style="fill:#ffffff;fill-opacity:1" />
    <path
       d="m5800 2040c8-5 20-10 25-10 6 0 3 5-5 10s-19 10-25 10c-5 0-3-5 5-10z"
       id="path136"
       style="fill:#ffffff;fill-opacity:1" />
    <path
       d="m5858 2023c12-2 30-2 40 0 9 3-1 5-23 4-22 0-30-2-17-4z"
       id="path138"
       style="fill:#ffffff;fill-opacity:1" />
    <path
       d="m6610 1974c39-45 53-79 45-116-6-26-4-28 25-28 30 0 32 2 25 28-3 15-14 35-22 45-24 26-9 31 28 8 48-29 66-27 65 6-1 26-4 28-36 25-26-2-50 6-94 33-32 19-61 35-63 35-3 0 9-16 27-36z"
       id="path140"
       style="fill:#ffffff;fill-opacity:1" />
    <path
       d="m5925 1980c-10-16-92-50-121-50-17 0-24-6-24-20 0-27 33-26 71 1 35 25 36 20 5-36-26-46-25-55 9-55 19 0 23 7 27 49 3 28 14 62 28 80 12 18 20 34 17 37s-8 0-12-6z"
       id="path142"
       style="fill:#ffffff;fill-opacity:1" />
    <path
       d="m6563 1930c0-25 2-35 4-22 2 12 2 32 0 45-2 12-4 2-4-23z"
       id="path144"
       style="fill:#ffffff;fill-opacity:1" />
    <path
       d="m4713 1905c-64-57-83-65-103-41-20 25-111 49-185 49-127 1-205-57-205-152 0-39 5-49 44-86 47-46 80-57 144-48 60 8 62 23 3 23-27 0-53 5-56 10-4 6-15 8-26 5-25-8-65 35-73 80-17 86 67 156 185 154h64l-39-15c-48-17-76-49-76-86 0-15-4-28-8-28-16 0-32 25-32 50 0 14 5 31 12 38 9 9 9 12-4 12-8 0-27-12-42-26l-26-27 34-33c32-31 73-44 88-28 3 3 1 18-5 34-10 25-8 33 11 53 28 30 99 42 153 25 55-16 67-33 42-61-39-43-80-113-102-170-32-88-25-81 30 28 74 146 107 175 128 114 24-68 5-146-46-194-15-14-23-25-16-25 16 0 68 69 83 111 16 43 7 97-20 132l-20 26 42 40c24 22 57 51 73 65 17 14 26 25 20 26-5 0-38-25-72-55z"
       id="path146"
       style="fill:#ffffff;fill-opacity:1" />
    <path
       d="m7645 1915c-27-19-69-50-93-70-48-39-56-41-94-21-43 23-137 56-156 55-9 0 12-11 48-23 74-26 130-53 130-63 0-4-22-29-49-57s-61-64-75-81c-24-30-25-30-40-10-17 22-20 12-7-20 5-12 4-25-2-33-8-10-7-16 3-22s8-17-11-56c-25-50-81-100-65-59 6 16 2 15-21-8-24-22-38-27-81-27-76 0-141 28-195 85-25 26-35 45-31 57 3 10 1 18-5 18-5 0-12-9-16-19-8-27 73-105 143-138 43-20 64-24 110-21 111 9 175 65 191 169 7 41 18 60 66 112 89 96 106 110 118 98 17-17 31-13 16 5-11 14-8 20 21 45 19 16 63 47 98 70 34 23 62 43 62 45 0 9-18 1-65-31z"
       id="path148"
       style="fill:#ffffff;fill-opacity:1" />
    <path
       d="m10810 1925c0-8 5-15 10-15 6 0 10 7 10 15s-4 15-10 15c-5 0-10-7-10-15z"
       id="path150"
       style="fill:#ffffff;fill-opacity:1" />
    <path
       d="m7135 1894c-38-12-38-12-10-13 17 0 37 3 45 9 24 15 7 17-35 4z"
       id="path152"
       style="fill:#ffffff;fill-opacity:1" />
    <path
       d="m7209 1887c5-5 24-7 42-5 33 3 33 4-8 8-23 3-39 2-34-3z"
       id="path154"
       style="fill:#ffffff;fill-opacity:1" />
    <path
       d="m6540 1861c-7-15-7-21 0-21 12 0 25 28 17 36-3 3-10-4-17-15z"
       id="path156"
       style="fill:#ffffff;fill-opacity:1" />
    <path
       d="m7024 1862c-41-23-65-43-89-72l-20-25 30 26c44 38 86 65 120 77 21 7 24 11 10 11-11 0-34-8-51-17z"
       id="path158"
       style="fill:#ffffff;fill-opacity:1" />
    <path
       d="m5995 1830c3-5 8-10 11-10 2 0 4 5 4 10 0 6-5 10-11 10-5 0-7-4-4-10z"
       id="path160"
       style="fill:#ffffff;fill-opacity:1" />
    <path
       d="m5810 1816c0-3 11-22 25-42 16-23 25-31 25-20 0 15 5 15 41-6 53-29 199-172 199-195 0-4 10-19 21-33l20-25-7 25c-17 61-76 147-143 207-46 41-181 108-181 89z"
       id="path162"
       style="fill:#ffffff;fill-opacity:1" />
    <path
       d="m6635 1787c-116-61-193-160-236-302-26-82-23-98 6-47 13 23 22 49 19 56-8 20 23 76 42 76 8 0 25 6 37 14 38 24 117 21 117-5 0-5 5-9 10-9 16 0 11 23-9 47-23 28-75 22-116-13-31-26-35-28-35-15 0 34 184 189 212 179 7-3 23 8 36 23l24 29h-24c-13 0-50-15-83-33z"
       id="path164"
       style="fill:#ffffff;fill-opacity:1" />
    <path
       d="m8921 1804c-52-22-31-26 25-4 27 10 40 19 29 19s-35-6-54-15z"
       id="path166"
       style="fill:#ffffff;fill-opacity:1" />
    <path
       d="m7035 1770c-10-11-14-20-9-20s15 9 22 20 11 20 9 20-12-9-22-20z"
       id="path168"
       style="fill:#ffffff;fill-opacity:1" />
    <path
       d="m10290 1780c0-5 5-10 10-10 6 0 10 5 10 10 0 6-4 10-10 10-5 0-10-4-10-10z"
       id="path170"
       style="fill:#ffffff;fill-opacity:1" />
    <path
       d="m4276 1765c4-8 8-15 10-15s4 7 4 15-4 15-10 15c-5 0-7-7-4-15z"
       id="path172"
       style="fill:#ffffff;fill-opacity:1" />
    <path
       d="m10290 1700c0-30 5-62 10-70 7-11 10 1 10 40 0 30-5 62-10 70-7 11-10-1-10-40z"
       id="path174"
       style="fill:#ffffff;fill-opacity:1" />
    <path
       d="m4280 1728c0-8 7-21 15-28 19-16 19-1 0 24-12 16-15 17-15 4z"
       id="path176"
       style="fill:#ffffff;fill-opacity:1" />
    <path
       d="m6967 1678c-51-74-60-88-53-88 3 0 28 34 56 75 61 91 59 100-3 13z"
       id="path178"
       style="fill:#ffffff;fill-opacity:1" />
    <path
       d="m2240 1719c0-5 5-7 10-4 6 3 10 8 10 11 0 2-4 4-10 4-5 0-10-5-10-11z"
       id="path180"
       style="fill:#ffffff;fill-opacity:1" />
    <path
       d="m7078 1718c-9-5-4-8 13-8 16 0 30-7 34-17 6-17 7-17 16 0 12 20 42 22 58 3 8-10 6-19-9-39l-21-26 37 6c35 6 36 5 32-23-3-27-6-29-43-27-33 1-36 0-17-7 15-6 22-18 22-35 0-20-5-25-25-25-17 0-28 7-34 22l-8 22-6-24c-5-18-11-22-31-18-14 3-26 1-26-3 0-10 4-11 71-13 36-1 56 4 70 17 11 10 17 22 14 26-2 5 4 16 15 26 23 21 26 48 7 67-17 17-28 68-15 68 6 0 24-10 41-22l32-21-25 25c-22 23-35 26-107 30-45 3-88 1-95-4z"
       id="path182"
       style="fill:#ffffff;fill-opacity:1" />
    <path
       d="m5403 1713c-9-3-10-10-4-21 5-9 9-20 10-24 1-5 4-8 9-8 7 0 8 4 11 35 2 23 39 18 47-7s-17-48-53-48c-16 0-23-6-23-19 0-11-12-23-31-31-26-11-33-11-46 3-13 13-14 19-3 31 7 9 18 16 25 16 10 0 11 5 2 23l-11 24-23-34c-28-42-29-55-3-78 11-10 20-26 20-36s8-22 18-27c24-13 140-13 148-1 10 16-3 22-23 11-13-8-22-7-35 5-16 15-20 15-36 0-19-18-52-6-52 18 0 20 40 45 70 45 14 0 36-7 48-16 20-14 24-14 44 0 30 22 32 49 3 76-13 13-22 27-19 32 16 26-51 49-93 31zm115-95c-2-15-11-24-26-26-24-4-82 18-82 30s14 10 28-4c9-9 13-7 18 5 4 11 17 17 36 17 25 0 29-4 26-22z"
       id="path184"
       style="fill:#ffffff;fill-opacity:1" />
    <path
       d="m5880 1683c6-13 20-27 33-33 20-10 21-10 4 4-10 8-25 23-33 33-14 17-14 16-4-4z"
       id="path186"
       style="fill:#ffffff;fill-opacity:1" />
    <path
       d="m6635 1680c-10-11-16-22-13-25s13 4 23 15 16 22 13 25-13-4-23-15z"
       id="path188"
       style="fill:#ffffff;fill-opacity:1" />
    <path
       d="m6881 1688c0-9-4-25-7-35-5-14-4-15 5-7 7 7 11 22 8 35-2 13-5 16-6 7z"
       id="path190"
       style="fill:#ffffff;fill-opacity:1" />
    <path
       d="m4315 1680c-3-5-1-10 4-10 6 0 11 5 11 10 0 6-2 10-4 10-3 0-8-4-11-10z"
       id="path192"
       style="fill:#ffffff;fill-opacity:1" />
    <path
       d="m7045 1654c-18-13-17-14 11-14 32 0 48-9 51-27 3-13-42-29-67-24-10 2-8-2 5-12 17-13 22-13 39-1 11 7 30 11 42 8 16-4 24 0 29 15 8 27-1 41-28 41-13 0-32 6-43 14-17 12-22 12-39 0z"
       id="path194"
       style="fill:#ffffff;fill-opacity:1" />
    <path
       d="m5920 1613c-11-14-20-31-20-37 0-26 13-55 22-50 5 3 4 12-4 21-10 13-8 18 11 34 26 21 62 24 92 9 12-7 19-7 19-1 0 12-31 30-71 41-24 7-32 4-49-17z"
       id="path196"
       style="fill:#ffffff;fill-opacity:1" />
    <path
       d="m7021 1614c0-11 3-14 6-6 3 7 2 16-1 19-3 4-6-2-5-13z"
       id="path198"
       style="fill:#ffffff;fill-opacity:1" />
    <path
       d="m10280 1590c-33-24-136-81-225-125-57-27-222-95-232-95-2 0-3 12-3 26 0 35-15 22-18-15-3-39 14-47 65-31 143 46 443 212 443 245 0 18 1 19-30-5z"
       id="path200"
       style="fill:#ffffff;fill-opacity:1" />
    <path
       d="m2241 1575c-1-28 6-34 102-87 172-95 366-183 387-176 12 4 20 198 8 198-5 0-8-24-8-54 0-29-3-67-6-84l-6-31-37 18c-20 10-54 24-76 31s-96 42-165 78-138 71-153 80c-16 8-32 24-37 36-8 19-9 18-9-9z"
       id="path202"
       style="fill:#ffffff;fill-opacity:1" />
    <path
       d="m6305 1560c-4-12-5-24-2-27 3-2 8 5 12 17s5 24 2 27c-3 2-8-5-12-17z"
       id="path204"
       style="fill:#ffffff;fill-opacity:1" />
    <path
       d="m4070 1560c0-5 11-10 25-10 36 0 80-30 137-94 67-75 124-109 180-104 35 2 43-1 46-16 4-17-3-18-95-14-84 4-106 8-151 33-97 51-169 51-317 0-38-13-83-25-99-27-49-5-40-24 16-37 111-25 124-28 162-44 74-32 144-22 268 37 50 24 67 26 140 24 67-2 83-6 86-19 2-13-7-16-51-16-66 0-89-14-189-115-68-69-80-78-113-78-25 0-35-4-33-12 3-9 33-14 92-16 77-2 92 0 139 23 57 29 97 62 97 80 0 7 9 20 20 30s18 21 15 25c-5 7 31 40 44 40 5 0 11 6 14 14 3 7 27 19 53 25 51 13 214 27 214 19 0-13-83-59-97-54-23 9-53-12-53-38 0-13-7-29-15-36-23-19-18-30 13-30 36 0 84 40 86 70 1 19 9 26 36 33 19 4 45 11 58 14 17 4 22 1 22-15 0-24 54-72 80-72 27 0 70 21 70 35 0 7-13 9-35 7-28-3-40 1-66 27-37 38-34 56 12 57 69 2 80 4 73 15-4 7-22 9-48 5-43-6-59-1-69 24-4 12-6 12-6-1-1-19-1-19-151-19-119 0-199 20-207 51-3 11-12 19-19 19-8 0-17 7-20 15-4 8-11 15-17 15-8 0-8-3 0-11 10-10 7-49-5-49-22 0-119 58-169 102-34 29-72 61-85 70-23 17-23 17 19 18 46 0 164-42 184-66 6-8 16-14 21-14 6 0 5 7-2 15-11 13-6 15 32 15 24 0 49-5 55-11 8-8 13-8 17 0 4 6 20 11 35 11 43 0 94 21 82 33-6 6-23 4-51-7-53-21-60-20-61 7 0 22 0 22-10-2-9-23-12-24-79-17-38 3-92 15-120 26-55 22-210 29-210 10zm90-211c28-6 50-13 48-15-3-2-68-4-145-5s-147-5-154-10c-8-5 57-9 161-9h175l-40-19c-91-44-144-44-288 1-79 24-75 31 26 53 78 17 151 18 217 4zm355-19c18-8 17-9-7-9-16-1-28 4-28 9 0 12 8 12 35 0zm25-25c0-2-9-9-20-15-22-12-44-5-35 11 6 9 55 13 55 4zm-98-57c7-19-53-99-97-129-54-37-175-64-175-39 0 6 6 10 13 10 6 0 44 31 83 68 91 87 164 124 176 90zm248-22c0-21-21-31-30-15-5 7-6 17-4 21 9 14 34 9 34-6z"
       id="path206"
       style="fill:#ffffff;fill-opacity:1" />
    <path
       d="m4366 1205c-16-14-25-25-20-25 12 0 26 11 43 33 19 24 11 21-23-8z"
       id="path208"
       style="fill:#ffffff;fill-opacity:1" />
    <path
       d="m4278 1136c-26-17-47-35-47-39-1-11 76 33 96 55 24 26 5 20-49-16z"
       id="path210"
       style="fill:#ffffff;fill-opacity:1" />
    <path
       d="m6008 1546c29-7 62-22 75-32 21-19 21-19 7 0-19 24-71 46-107 45-19 0-12-5 25-13z"
       id="path212"
       style="fill:#ffffff;fill-opacity:1" />
    <path
       d="m6494 1545c-17-7-37-21-44-30-10-12-3-10 23 5 39 23 94 30 140 16 20-6 27-5 27 5 0 19-106 22-146 4z"
       id="path214"
       style="fill:#ffffff;fill-opacity:1" />
    <path
       d="m7285 1550c-3-5-1-10 4-10 6 0 11 5 11 10 0 6-2 10-4 10-3 0-8-4-11-10z"
       id="path216"
       style="fill:#ffffff;fill-opacity:1" />
    <path
       d="m4210 1526c0-2 24-16 53-30 28-15 72-45 96-67s46-38 48-35c5 5-38 46-92 88-32 25-105 56-105 44z"
       id="path218"
       style="fill:#ffffff;fill-opacity:1" />
    <path
       d="m6854 1496c-9-15-14-29-12-32 3-2 13 7 22 22 10 14 15 28 13 31-3 2-13-7-23-21z"
       id="path220"
       style="fill:#ffffff;fill-opacity:1" />
    <path
       d="m7250 1498c-12-22-12-22 6-6 10 10 15 20 12 24-4 3-12-5-18-18z"
       id="path222"
       style="fill:#ffffff;fill-opacity:1" />
    <path
       d="m5040 1490c-6-4-22-5-36-2-34 6-103-26-136-63-43-47-34-61 14-23 39 30 48 33 105 31 54-1 68-5 103-33 58-46 74-82 74-165 0-110-50-187-151-231-43-19-71-24-141-24-103 0-167 20-236 73-56 43-75 66-110 135-14 28-30 52-34 52-13 0-14-81-2-96 7-7 10-19 8-26-4-11 5-32 48-108 26-46 89-110 109-110 12 0 31-13 43-30 27-36 64-46 197-55 110-7 176 8 202 45 8 11 23 20 34 20s45 25 76 56c51 50 55 58 50 90-4 25-2 34 8 34 18 0 23 10 31 55 4 25 2 35-5 30-6-3-11-13-11-21 0-24-25-43-49-37-25 6-29-18-6-37 25-21 17-51-25-92-44-41-63-46-87-23-20 20-35 9-31-22 4-35-37-65-100-71-43-4-52-2-61 17-15 27-41 27-48 1s-64-27-113-2c-30 15-35 22-35 52 0 26-4 34-15 31-57-16-77-12-99 15-12 15-21 38-19 51 2 16-4 27-20 36-13 7-31 24-40 39-13 23-14 30-3 40 10 11 12 10 10-2-4-23 10-57 26-64 18-7 19 6 3 23-11 10-10 11 5 6 9-4 17-11 17-15 0-14 121-89 172-106 78-26 189-16 270 24 93 46 148 136 148 243 0 80-11 108-61 160-26 27-42 49-34 49s17-4 20-10c3-5 14-10 23-10 14 1 13 4-7 20-25 22-77 28-65 8 4-7 3-8-4-4-24 14-1 35 31 29 48-9 67-21 67-43 0-14 7-20 23-20 53 0 115-117 72-134-22-8-18-36 4-36 23 0 31-11 42-54 7-30 7-29 8 11 1 23-3 45-9 48-5 3-10 20-10 37 0 82-98 186-196 208-18 4-37 4-44 0zm-25-30c7-12-22-12-50 0-17 7-15 9 12 9 17 1 35-3 38-9zm-507-285c-3-3-9 2-12 12-6 14-5 15 5 6 7-7 10-15 7-18z"
       id="path224"
       style="fill:#ffffff;fill-opacity:1" />
    <path
       d="m7947 1473c-11-14-25-22-33-19-19 7-55-30-48-49 4-9-2-25-11-35-10-11-13-20-7-20s14 5 17 10c3 6 16 10 29 10 29 0 56 29 56 61 0 14 5 30 11 36s10 16 8 21c-2 6-12-1-22-15zm-27-75c0-5-9-8-20-8-22 0-28 26-7 33 12 4 27-10 27-25z"
       id="path226"
       style="fill:#ffffff;fill-opacity:1" />
    <path
       d="m4579 1472c5-10 17-24 25-31s13-18 10-25c-7-18 23-41 56-42 23-1 26 2 25 25-2 41-13 51-51 51-23 0-38 6-46 20-16 25-32 27-19 2zm101-57c0-8-7-15-15-15s-15 7-15 15 7 15 15 15 15-7 15-15z"
       id="path228"
       style="fill:#ffffff;fill-opacity:1" />
    <path
       d="m6120 1482c0-4 4-12 9-17 5-6 14-27 19-47l10-38h-52c-47 0-53 3-70 31-21 35-86 69-131 68-25-1-23-3 13-10 71-14 139-76 113-102-15-15-14-60 1-75 7-7 38-12 69-12 37 0 59-5 62-12 4-10 6-10 6 0 1 9 43 12 175 12 192 0 203 3 191 59-5 22-13 31-33 35-25 5-111 10-122 7-25-7-191-7-201 0-8 4-14 19-15 31-1 41-16 78-30 78-8 0-14-4-14-8zm399-158c2-2 1-10-3-19-5-13-35-15-238-13-211 3-233 5-236 20-3 16 14 18 215 20 200 3 252 1 262-8z"
       id="path230"
       style="fill:#ffffff;fill-opacity:1" />
    <path
       d="m6291 1474c0-11 3-14 6-6 3 7 2 16-1 19-3 4-6-2-5-13z"
       id="path232"
       style="fill:#ffffff;fill-opacity:1" />
    <path
       d="m6592 1477c-36-11-92-58-92-77 0-6 11 2 25 19 32 37 84 55 144 48 45-5 46-5 16 8-35 16-48 17-93 2z"
       id="path234"
       style="fill:#ffffff;fill-opacity:1" />
    <path
       d="m4462 1460c0-14 2-19 5-12 2 6 2 18 0 25-3 6-5 1-5-13z"
       id="path236"
       style="fill:#ffffff;fill-opacity:1" />
    <path
       d="m4396 1457c3-10 9-15 12-12s0 11-7 18c-10 9-11 8-5-6z"
       id="path238"
       style="fill:#ffffff;fill-opacity:1" />
    <path
       d="m5836 1454c-11-8-16-14-10-14 13 0 39 18 34 24-3 2-14-2-24-10z"
       id="path240"
       style="fill:#ffffff;fill-opacity:1" />
    <path
       d="m6252 1420c0-19 2-27 5-17 2 9 2 25 0 35-3 9-5 1-5-18z"
       id="path242"
       style="fill:#ffffff;fill-opacity:1" />
    <path
       d="m6280 1439c0-5 5-7 10-4 6 3 10 8 10 11 0 2-4 4-10 4-5 0-10-5-10-11z"
       id="path244"
       style="fill:#ffffff;fill-opacity:1" />
    <path
       d="m6816 1416c-9-19-16-40-16-48 0-7 9 7 20 31s19 46 16 48c-2 2-11-12-20-31z"
       id="path246"
       style="fill:#ffffff;fill-opacity:1" />
    <path
       d="m4450 1420c0-5 5-10 10-10 6 0 10 5 10 10 0 6-4 10-10 10-5 0-10-4-10-10z"
       id="path248"
       style="fill:#ffffff;fill-opacity:1" />
    <path
       d="m5797 1423c-4-3-7-13-7-22 1-13 3-13 11 2 11 19 8 33-4 20z"
       id="path250"
       style="fill:#ffffff;fill-opacity:1" />
    <path
       d="m5170 1380c0-5 4-10 10-10 15 0 40-57 34-77-6-17-6-17 10-2 17 16 17 18 1 50-22 43-55 66-55 39z"
       id="path252"
       style="fill:#ffffff;fill-opacity:1" />
    <path
       d="m6616 1359c-14-11-26-26-26-32 0-17 56-40 80-32 25 8 26 46 2 68-23 21-24 21-56-4z"
       id="path254"
       style="fill:#ffffff;fill-opacity:1" />
    <path
       d="m7170 1372c0-6-6-17-13-24-19-20-85-186-98-248-6-30-15-59-19-64-5-4-18 11-31 35-28 57-95 142-154 199-26 25-51 54-55 65-8 19-8 19-15 2-6-14 3-28 32-57 45-43 172-209 197-257 9-18 16-39 16-48 0-8 7-15 16-15 13 0 15 7 12 31-3 17 1 48 8 69s15 49 18 62c2 12 11 39 19 58 37 85 77 194 72 198-3 3-5 0-5-6z"
       id="path256"
       style="fill:#ffffff;fill-opacity:1" />
    <path
       d="m5880 1350c-24-24-25-34-4-55 16-16 28-16 67 0 23 10 22-6-4-39-30-38-87-37-128 5-43 42-39 19 4-27 27-28 40-35 57-30 13 3 33 6 44 6 16 0 26 11 38 39 17 45 14 75-10 102-22 24-39 24-64-1z"
       id="path258"
       style="fill:#ffffff;fill-opacity:1" />
    <path
       d="m7336 1347c-26-26-35-70-16-82 6-4 10 6 10 21s10 38 22 51c30 32 15 41-16 10z"
       id="path260"
       style="fill:#ffffff;fill-opacity:1" />
    <path
       d="m4730 1349c0-5 9-9 20-9s20 2 20 4-9 6-20 9-20 1-20-4z"
       id="path262"
       style="fill:#ffffff;fill-opacity:1" />
    <path
       d="m6751 1283c-16-32-66-56-100-48-15 3-34 18-44 33-10 16-17 21-17 12-1-48 75-85 125-62 28 13 59 56 53 74-3 8-9 5-17-9z"
       id="path264"
       style="fill:#ffffff;fill-opacity:1" />
    <path
       d="m6056 1217c-4-24-19-69-35-100-16-32-22-52-14-45 24 19 54 87 62 139 5 27 5 49 1 49s-11-19-14-43z"
       id="path266"
       style="fill:#ffffff;fill-opacity:1" />
    <path
       d="m6481 1234c-1-39 22-106 50-146 18-25 19-32 8-39-26-17-83-6-95 19-17 34-26 40-19 11 6-24 3-27-31-32-24-4-43-2-52 6-12 9-16 9-19 0-5-15-79-18-87-4-3 5 3 50 15 101 11 51 18 95 15 97-3 3-7-5-10-18s-13-59-21-101c-9-42-22-78-28-80-7-2-63-4-124-4-117 1-156-11-56-16l56-3-52-57c-59-65-118-102-187-120-69-17-81-32-19-23 79 10 184 81 249 168 27 35 32 37 83 37 33 0 52-4 48-10-3-5-1-10 4-10 6 0 11 4 11 10 0 5 47 9 114 9h113l32-44c55-76 202-165 274-165 27 0 15 24-14 28-56 7-123 36-171 75-54 42-97 86-98 100 0 4 30 7 66 7h67l-27 25c-30 28-76 121-87 175l-7 35-1-31z"
       id="path268"
       style="fill:#ffffff;fill-opacity:1" />
    <path
       d="m6138 1173c-9-38-19-79-22-93-5-18-2-16 9 7 8 18 15 34 15 35 0 2 7 25 15 52 17 56 18 66 7 66-4 0-15-30-24-67z"
       id="path270"
       style="fill:#ffffff;fill-opacity:1" />
    <path
       d="m5228 1208c16-16 15-70 0-87-11-10-9-12 6-9 40 7 42 108 3 108-16 0-18-3-9-12z"
       id="path272"
       style="fill:#ffffff;fill-opacity:1" />
    <path
       d="m7297 1193c-10-9-8-58 3-87 6-16 17-26 30-26 25 0 26 9 3 25-12 9-18 27-18 54 0 40-4 48-18 34z"
       id="path274"
       style="fill:#ffffff;fill-opacity:1" />
    <path
       d="m6391 1174c0-11 3-14 6-6 3 7 2 16-1 19-3 4-6-2-5-13z"
       id="path276"
       style="fill:#ffffff;fill-opacity:1" />
    <path
       d="m6300 1138c0-9 5-20 10-23 13-8 13 5 0 25-8 13-10 13-10-2z"
       id="path278"
       style="fill:#ffffff;fill-opacity:1" />
    <path
       d="m7983 1064c-27-30-28-34-8-34 15 0 38 35 33 50-2 5-13-2-25-16z"
       id="path280"
       style="fill:#ffffff;fill-opacity:1" />
    <path
       d="m5186 1032c7-34-25-67-56-59-22 6-26-3-8-21 17-17 32-15 60 11 32 28 41 53 28 78-16 28-30 23-24-9z"
       id="path282"
       style="fill:#ffffff;fill-opacity:1" />
    <path
       d="m7357 1016c-10-25 3-51 39-75l35-24 22 23 22 22-26-6c-33-7-69 18-69 50 0 26-15 33-23 10z"
       id="path284"
       style="fill:#ffffff;fill-opacity:1" />
    <path
       d="m4600 996c0-19 49-58 69-54 8 2 16 9 19 16 2 7-2 10-12 6-9-3-24 5-37 20-25 29-39 33-39 12z"
       id="path286"
       style="fill:#ffffff;fill-opacity:1" />
    <path
       d="m6256 972c-34-76-107-139-149-129-25 7-61-11-39-20 8-3 5-10-10-23-30-24-32-112-5-154 18-27 22-28 69-22 43 6 88 25 108 46 3 3 13 11 23 19 16 12 17 12 10-5-22-59-99-154-124-154-5 0-9-18-9-40s5-40 10-40c18 0 60 32 60 45 0 8 8 11 21 8 15-4 27 1 40 18l19 24v-29c0-17-9-39-20-51-15-16-19-29-14-53 4-17 10-29 15-26s9-10 9-28c0-35 15-67 26-56 3 4 6 25 6 47-1 25 4 41 14 45 22 8 18 63-6 76-12 6-20 21-20 35 0 28 7 30 34 10 10-8 23-12 27-9 4 2 13-5 19-16 8-14 21-20 45-20 30 0 35 3 35 24 0 17-10 31-33 45-34 21-63 56-90 108-22 41-21 50 1 31 28-25 74-45 120-52 37-5 46-3 67 18 20 20 25 35 25 73 0 47-20 93-41 93-6 0-3-10 5-22 26-37 20-83-15-112-63-54-148-20-185 73l-22 54-7-34c-26-120-171-162-223-65-12 24 1 73 25 92 27 20 50 17 78-13l26-28-12 26c-6 15-21 32-33 37l-21 11h22c29 1 111 52 118 74 7 20 22 22 39 4 16-16 3-57-19-57-8 0-15 5-15 12 0 6-2 9-5 6-9-9 6-38 19-38 7 0 19 11 26 25 8 14 16 24 19 22 53-29 126-58 143-55 32 4 23 24-10 21-15-2-38 2-52 8-27 11-99 96-115 136l-11 26-18-41zm-10-404c-8-18-19-34-25-36s-2 12 10 32c26 45 32 46 15 4zm89 2c3-5 1-10-4-10-6 0-11 5-11 10 0 6 2 10 4 10 3 0 8-4 11-10zm-35-136c0-9-5-14-12-12-18 6-21 28-4 28 9 0 16-7 16-16z"
       id="path288"
       style="fill:#ffffff;fill-opacity:1" />
    <path
       d="m6190 987c0-13-15-35-64-93-35-42-29-57 7-18 33 36 81 124 68 124-6 0-11-6-11-13z"
       id="path290"
       style="fill:#ffffff;fill-opacity:1" />
    <path
       d="m6381 934c21-41 48-74 61-74 5 0 3 6-4 14-7 7-24 32-38 54-31 51-44 55-19 6z"
       id="path292"
       style="fill:#ffffff;fill-opacity:1" />
    <path
       d="m4750 916c0-50 101-81 115-35 9 27 0 35-20 16-21-21-75-4-75 24 0 10-4 19-10 19-5 0-10-11-10-24z"
       id="path294"
       style="fill:#ffffff;fill-opacity:1" />
    <path
       d="m5040 924c0-28-71-54-95-34-12 10-15 10-15-3 0-8 6-20 14-26 19-16 86 1 109 27 15 16 15 21 2 38-14 19-14 19-15-2z"
       id="path296"
       style="fill:#ffffff;fill-opacity:1" />
    <path
       d="m6402 790c-7-11-9-20-4-20 4 0 13 9 20 20s9 20 4 20c-4 0-13-9-20-20z"
       id="path298"
       style="fill:#ffffff;fill-opacity:1" />
    <path
       d="m6102 758c-18-18-15-36 7-48 11-5 22-10 25-10 10 0 36 32 36 43 0 7-5 4-11-5-12-21-33-24-26-4 8 21-16 39-31 24z"
       id="path300"
       style="fill:#ffffff;fill-opacity:1" />
    <path
       d="m6435 750c-4-11-11-18-16-15-5 4-9 2-9-4 0-28 53-23 64 6 4 9 1 20-6 25-20 12-26 10-33-12z"
       id="path302"
       style="fill:#ffffff;fill-opacity:1" />
  </g>
  <metadata
     id="metadata304">
    <rdf:RDF>
      <cc:Work>
        <dc:format>image/svg+xml</dc:format>
        <dc:type
           rdf:resource="http://purl.org/dc/dcmitype/StillImage" />
        <cc:license
           rdf:resource="http://creativecommons.org/licenses/publicdomain/" />
        <dc:publisher>
          <cc:Agent
             rdf:about="http://openclipart.org/">
            <dc:title>Openclipart</dc:title>
          </cc:Agent>
        </dc:publisher>
        <dc:title></dc:title>
        <dc:date>2013-07-29T20:04:06</dc:date>
        <dc:description>Robinson, Nugent. Collier's Cyclopedia of Commercial and Social Information and Treasury of Useful and Entertaining Knowledge. New York: P.F. Collier, 1882. Courtesy of www.kickthekork.com </dc:description>
        <dc:source>http://openclipart.org/detail/181268/divider-2-by-kickthecork.com-181268</dc:source>
        <dc:creator>
          <cc:Agent>
            <dc:title>kickthecork.com</dc:title>
          </cc:Agent>
        </dc:creator>
        <dc:subject>
          <rdf:Bag>
            <rdf:li>design</rdf:li>
            <rdf:li>divider</rdf:li>
            <rdf:li>upload2openclipart</rdf:li>
          </rdf:Bag>
        </dc:subject>
      </cc:Work>
      <cc:License
         rdf:about="http://creativecommons.org/licenses/publicdomain/">
        <cc:permits
           rdf:resource="http://creativecommons.org/ns#Reproduction" />
        <cc:permits
           rdf:resource="http://creativecommons.org/ns#Distribution" />
        <cc:permits
           rdf:resource="http://creativecommons.org/ns#DerivativeWorks" />
      </cc:License>
    </rdf:RDF>
  </metadata>
</svg>
